<?xml version="1.0" encoding="UTF-8"?><svg id="Layer_1" xmlns="http://www.w3.org/2000/svg" viewBox="0 0 810.95 547.02"><defs><style>.cls-1{fill:#c22e4a;}.cls-2{fill:#c62d48;}.cls-3,.cls-4,.cls-5{fill:#fff;}.cls-3,.cls-6{stroke:#000;}.cls-4{stroke-width:2.5px;}.cls-4,.cls-5{stroke:#497490;}.cls-5{stroke-width:5px;}.cls-6{fill:none;stroke-dasharray:0 0 7 3;}</style></defs><path class="cls-6" d="M600.7,199.12h208v229.8h-208V199.12ZM2.6,199.12H190.6v188.8H2.6V199.12Zm303.2,200.3h188v147.1h-188v-147.1h0Z"/><g><path class="cls-4" d="M599.7,147.52h210v52h-210v-52Z"/><path class="cls-1" d="M399.8,199.12l4.8-4.8h-3.6v-64.8h-2.4v64.8h-3.5l4.7,4.8Zm206.4-108l-4.8-4.8v3.6h-103.8v2.4h103.8v3.5l4.8-4.7Zm-409.3,0l4.8,4.7v-3.5h103.8v-2.4h-103.8v-3.6l-4.8,4.8Z"/><path class="cls-2" d="M687.1,223.52h5.6v16.4h-5.6v-16.4Zm-6.8,.1l-11.4,6.9c-.2,.1-.4,.1-.5,0l-11.4-6.9c-.2-.1-.5-.2-.8-.2-.9,0-1.6,.7-1.6,1.6v14.9h5.6v-7.1c0-.3,.2-.6,.6-.6,.1,0,.2,0,.3,.1l6.4,3.9c.6,.4,1.4,.4,2.1,0l6.7-3.9c.3-.2,.6-.1,.8,.2,.1,.1,.1,.2,.1,.3v7.1h5.6v-14.9c0-.9-.7-1.6-1.6-1.6-.4,0-.6,.1-.9,.2h0Zm40.3-.1h-5.7v7.5c0,.3-.3,.6-.6,.6-.1,0-.2,0-.3-.1l-14.7-7.8c-.2-.1-.5-.2-.7-.2-.9,0-1.6,.7-1.6,1.6v14.9h5.6v-7.4c0-.3,.2-.6,.6-.6,.1,0,.2,0,.3,.1l14.8,7.8c.8,.4,1.7,.1,2.1-.6,.1-.2,.2-.5,.2-.7v-15.1h0Zm4.6,16.4v-16.4h2.6v16.4h-2.6Zm17.6,.3c-6.9,0-11.9-3.3-11.9-8.6s4.9-8.6,11.9-8.6,11.9,3.3,11.9,8.6-4.9,8.6-11.9,8.6Zm0-14.9c-5.2,0-9.1,2.3-9.1,6.4s4,6.4,9.1,6.4,9.2-2.2,9.2-6.4c-.1-4.2-4.1-6.4-9.2-6.4Z"/><path class="cls-4" d="M1.6,147.52H191.6v52H1.6v-52Z"/><path class="cls-2" d="M79,223.52h5.6v16.4h-5.6v-16.4Zm-6.7,.1l-11.4,6.9c-.2,.1-.4,.1-.5,0l-11.4-6.9c-.2-.1-.5-.2-.8-.2-.9,0-1.6,.7-1.6,1.6v14.9h5.6v-7.1c0-.3,.2-.6,.6-.6,.1,0,.2,0,.3,.1l6.4,3.9c.6,.4,1.4,.4,2.1,0l6.7-3.9c.3-.2,.6-.1,.8,.2,.1,.1,.1,.2,.1,.3v7.1h5.6v-14.9c0-.9-.7-1.6-1.6-1.6-.4,0-.7,.1-.9,.2h0Zm40.3-.1h-5.7v7.5c0,.3-.3,.6-.6,.6-.1,0-.2,0-.3-.1l-14.7-7.8c-.2-.1-.5-.2-.7-.2-.9,0-1.6,.7-1.6,1.6v14.9h5.6v-7.4c0-.3,.2-.6,.6-.6,.1,0,.2,0,.3,.1l14.8,7.8c.8,.4,1.7,.1,2.1-.6,.1-.2,.2-.5,.2-.7v-15.1h0Zm4.5,16.4v-16.4h2.6v16.4h-2.6Zm17.6,.3c-6.9,0-11.9-3.3-11.9-8.6s4.9-8.6,11.9-8.6,11.9,3.3,11.9,8.6-4.8,8.6-11.9,8.6Zm0-14.9c-5.2,0-9.1,2.3-9.1,6.4s4,6.4,9.1,6.4,9.2-2.2,9.2-6.4-4-6.4-9.2-6.4Z"/><path class="cls-4" d="M304.8,347.52h190v52h-190v-52Z"/><path class="cls-2" d="M382.2,423.82h5.6v16.4h-5.6v-16.4Zm-6.7,.1l-11.4,6.9c-.2,.1-.4,.1-.5,0l-11.4-6.9c-.2-.1-.5-.2-.8-.2-.9,0-1.6,.7-1.6,1.6v14.9h5.6v-7.1c0-.3,.2-.6,.6-.6,.1,0,.2,0,.3,.1l6.4,3.9c.6,.4,1.4,.4,2.1,0l6.7-3.9c.3-.2,.6-.1,.8,.2,.1,.1,.1,.2,.1,.3v7.1h5.6v-14.9c0-.9-.7-1.6-1.6-1.6-.4,0-.7,.1-.9,.2Zm40.3-.1h-5.7v7.5c0,.3-.3,.6-.6,.6-.1,0-.2,0-.3-.1l-14.7-7.8c-.2-.1-.5-.2-.7-.2-.9,0-1.6,.7-1.6,1.6v14.9h5.6v-7.4c0-.3,.2-.6,.6-.6,.1,0,.2,0,.3,.1l14.8,7.8c.8,.4,1.7,.1,2.1-.6,.1-.2,.2-.5,.2-.7v-15.1h0Zm4.5,16.4v-16.4h2.6v16.4h-2.6Zm17.6,.4c-6.9,0-11.9-3.3-11.9-8.6s4.9-8.6,11.9-8.6,11.9,3.3,11.9,8.6-4.8,8.6-11.9,8.6Zm0-15c-5.2,0-9.1,2.3-9.1,6.4s4,6.4,9.1,6.4,9.2-2.2,9.2-6.4-4-6.4-9.2-6.4Z"/><g><path d="M644.2,276.32h-2.7l-5.1-13.3h2.3l4.1,11.1,4.2-11.1h2.2l-5,13.3Zm21.5,0h-2.1v-11l-3.9,9.6h-2.3l-3.9-9.5v10.8h-2.1v-13.2h3.3l3.9,9.5,3.9-9.5h3.3v13.3h-.1Zm13.1-2.2l2.1-7h2.1l-3,9.1h-2.4l-2.3-6.9-2.3,6.9h-2.3l-3-9.1h2.1l2.1,6.9,2.2-6.9h2.3l2.4,7Zm14.9,2.2h-2v-1.1c-.6,.8-1.6,1.3-2.9,1.3-2.5,0-4.6-2-4.6-4.8s2-4.8,4.6-4.8c1.3,0,2.2,.5,2.9,1.3v-1.1h2v9.2Zm-7.4-4.6c0,1.6,1,2.9,2.7,2.9,1.6,0,2.7-1.3,2.7-2.9,0-1.7-1.1-2.9-2.7-2.9s-2.7,1.3-2.7,2.9Zm16.6-4.5l-.5,2c-.4-.2-1-.3-1.5-.3-1.3,0-2.2,.9-2.2,2.4v5h-2v-9.1h2v1c.6-.9,1.5-1.3,2.6-1.3,.7,.1,1.2,.1,1.6,.3h0Zm9.9,4.5v.7h-6.7c.3,1.6,1.4,2.3,2.7,2.3,.9,0,1.9-.4,2.6-1l1,1.4c-1.1,1-2.4,1.3-3.7,1.3-2.7,0-4.7-1.9-4.7-4.8s1.9-4.8,4.5-4.8c2.5,.2,4.3,2.1,4.3,4.9h0Zm-6.8-.7h4.7c-.2-1.4-1-2.2-2.3-2.2-1.4-.1-2.2,.8-2.4,2.2Zm23.6-6h-4.3v11.3h-2.1v-11.3h-4.3v-2h10.7v2Zm9.3,11.3h-2v-1.1c-.6,.8-1.6,1.3-2.9,1.3-2.5,0-4.6-2-4.6-4.8s2-4.8,4.6-4.8c1.3,0,2.2,.5,2.9,1.3v-1.1h2v9.2Zm-7.4-4.6c0,1.6,1,2.9,2.7,2.9,1.6,0,2.7-1.3,2.7-2.9,0-1.7-1.1-2.9-2.7-2.9-1.7,0-2.7,1.3-2.7,2.9Zm18.9-1.1v5.7h-2v-5.1c0-1.5-.8-2.4-2.1-2.4s-2.4,.8-2.4,2.4v5h-2v-9.1h2v1.1c.7-1.1,1.9-1.3,2.8-1.3,2.2,.1,3.7,1.5,3.7,3.7h0Zm10.2-2l-5,5.9h5.1v1.8h-7.7v-1.4l5.1-5.9h-4.9v-1.8h7.5v1.4h-.1Zm11.1,3.8c0,2.9-2.1,4.1-4.2,4.1s-4.2-1.2-4.2-4.1v-5.2h2v5.1c0,1.8,1,2.4,2.2,2.4s2.2-.6,2.2-2.4v-5.1h2v5.2Zm-146.6,31.4c3.1,0,4.7,1.4,4.7,3.8s-1.7,3.8-4.4,3.9l4.4,5.6h-2.7l-4.2-5.6h-1.1v5.6h-2.2v-13.3h5.5Zm-3.4,2v3.7h3.3c1.7,0,2.5-.6,2.5-1.9s-.9-1.8-2.5-1.8h-3.3Zm18.5,6.7v.7h-6.7c.3,1.6,1.4,2.3,2.7,2.3,.9,0,1.9-.4,2.6-1l1,1.4c-1.1,1-2.4,1.3-3.7,1.3-2.7,0-4.7-1.9-4.7-4.8s1.9-4.8,4.5-4.8c2.6,.1,4.3,2.1,4.3,4.9h0Zm-6.7-.8h4.7c-.2-1.4-1-2.2-2.3-2.2-1.4,0-2.2,.9-2.4,2.2Zm15.9-2.6v-5.7h2v13.7h-2v-1.1c-.6,.8-1.6,1.3-2.9,1.3-2.5,0-4.6-2-4.6-4.8s2-4.8,4.6-4.8c1.4,0,2.3,.6,2.9,1.4h0Zm-5.3,3.4c0,1.6,1,2.9,2.7,2.9,1.6,0,2.7-1.3,2.7-2.9,0-1.7-1.1-2.9-2.7-2.9-1.7,0-2.7,1.3-2.7,2.9Zm18-3.1h7.2v-5.6h2.1v13.3h-2.1v-5.7h-7.2v5.7h-2.1v-13.3h2.1v5.6Zm21.4,7.7h-2v-1.1c-.6,.8-1.6,1.3-2.9,1.3-2.5,0-4.6-2-4.6-4.8s2-4.8,4.6-4.8c1.3,0,2.2,.5,2.9,1.3v-1h2v9.1h0Zm-7.4-4.6c0,1.6,1,2.9,2.7,2.9,1.6,0,2.7-1.3,2.7-2.9,0-1.7-1.1-2.9-2.7-2.9s-2.7,1.3-2.7,2.9Zm16.7-2.7h-3.5v4c0,1.2,.6,1.7,1.4,1.7,.6,0,1.3-.3,1.8-.6l.8,1.6c-.7,.5-1.7,.9-2.8,.9-2.1,0-3.3-1.1-3.3-3.5v-4h-1.8v-1.9h1.8v-2.8h2v2.8h3.5v1.8h.1Zm21,.6c0,4-2.9,6.9-7,6.9s-7-2.9-7-6.9,2.9-6.9,7-6.9,7,3,7,6.9Zm-11.7,0c0,2.9,2,4.8,4.7,4.8s4.7-2,4.7-4.8-2-4.8-4.7-4.8-4.7,2-4.7,4.8Zm23.7,2.1c0,2.8-2,4.8-4.6,4.8-1.3,0-2.2-.5-2.9-1.3v4.9h-2v-12.9h2v1.1c.6-.8,1.6-1.3,2.9-1.3,2.6-.1,4.6,1.9,4.6,4.7h0Zm-7.5,0c0,1.7,1.1,2.9,2.7,2.9,1.7,0,2.7-1.3,2.7-2.9s-1-2.9-2.7-2.9c-1.6,0-2.7,1.3-2.7,2.9Zm18.2,0v.7h-6.7c.3,1.6,1.4,2.3,2.7,2.3,.9,0,1.9-.4,2.6-1l1,1.4c-1.1,1-2.4,1.3-3.7,1.3-2.7,0-4.7-1.9-4.7-4.8s1.9-4.8,4.5-4.8c2.5,.1,4.3,2.1,4.3,4.9h0Zm-6.8-.8h4.7c-.2-1.4-1-2.2-2.3-2.2-1.4,0-2.2,.9-2.4,2.2Zm17.7-.3v5.7h-2v-5.1c0-1.5-.8-2.4-2.1-2.4s-2.4,.8-2.4,2.4v5h-2v-9h2v1.1c.7-1.1,1.9-1.3,2.8-1.3,2.2-.1,3.7,1.4,3.7,3.6h0Zm9.2-1.1c-.6-.3-1.7-.8-2.8-.8s-1.7,.4-1.7,1.1c0,.6,.7,.8,1.5,.9l.9,.1c2,.3,3.2,1.1,3.2,2.7,0,1.7-1.5,3-4.1,3-.9,0-2.6-.2-3.9-1.2l.9-1.5c.7,.5,1.5,.9,3,.9,1.4,0,2.1-.4,2.1-1.1,0-.5-.5-.9-1.6-1l-1-.1c-2-.3-3.1-1.2-3.1-2.7,0-1.8,1.4-2.9,3.8-2.9,1.4,0,2.7,.4,3.7,1l-.9,1.6h0Zm5.4-1.2c.7-1,1.9-1.3,2.8-1.3,2.2,0,3.7,1.5,3.7,3.6v5.7h-2v-5.1c0-1.5-.8-2.4-2.1-2.4s-2.4,.8-2.4,2.4v5h-2v-13.7h2v5.8h0Zm11.9-4.3c0,.8-.6,1.4-1.4,1.4s-1.4-.6-1.4-1.4,.6-1.4,1.4-1.4,1.4,.6,1.4,1.4Zm-.4,12.3h-2v-9.1h2v9.1h0Zm9-7.3h-3.1v7.3h-2v-7.3h-1.8v-1.8h1.8v-1.5c0-1.8,.9-3.3,3.1-3.3,1.1,0,1.9,.3,2.5,.7l-.7,1.7c-.5-.3-1.1-.5-1.7-.5-.8,0-1.2,.5-1.2,1.4v1.5h3.1v1.8h0Zm8.2,0h-3.5v4c0,1.2,.6,1.7,1.4,1.7,.6,0,1.3-.3,1.8-.6l.8,1.6c-.7,.5-1.7,.9-2.8,.9-2.1,0-3.3-1.1-3.3-3.5v-4h-1.8v-1.9h1.8v-2.8h2v2.8h3.5v1.8h.1Zm-143.1,39.5h7.2v-5.6h2.1v13.3h-2.1v-5.7h-7.2v5.7h-2.1v-13.3h2.1v5.6Zm15.1,2.5v5.2h-2.1v-13.3h5.2c3.1,0,4.7,1.5,4.7,4s-1.6,4-4.7,4h-3.1v.1h0Zm0-6v4h3c1.7,0,2.5-.6,2.5-2s-.8-2-2.5-2h-3Zm20.2,11.3h-9.7v-13.3h9.6v2h-7.4v3.6h7.2v2h-7.2v3.7h7.6v2h-.1Zm18,0h-9.7v-13.3h9.6v2h-7.4v3.6h7.2v2h-7.2v3.7h7.6v2h-.1Zm10.2-7.7l-5,5.9h5.1v1.8h-7.7v-1.4l5.1-5.9h-5v-1.8h7.5v1.4Zm17.7,1.9v5.7h-2v-5c0-1.5-.8-2.4-2.1-2.4s-2.4,.8-2.4,2.4v5h-2v-5c0-1.5-.8-2.4-2.1-2.4s-2.4,.8-2.4,2.4v5h-2v-9.1h2v1.1c.7-1.1,1.9-1.3,2.8-1.3,1.4,0,2.5,.6,3.1,1.6,.8-1.3,2.2-1.6,3.3-1.6,2.2,0,3.8,1.5,3.8,3.6h0Zm11.2,1.2v.7h-6.7c.3,1.6,1.4,2.3,2.7,2.3,.9,0,1.9-.4,2.6-1l1,1.4c-1.1,1-2.4,1.3-3.7,1.3-2.7,0-4.7-1.9-4.7-4.8s1.9-4.8,4.5-4.8c2.5,.1,4.3,2,4.3,4.9h0Zm-6.8-.8h4.7c-.2-1.4-1-2.2-2.3-2.2-1.4,0-2.2,.9-2.4,2.2Zm15.4-3.7l-.5,2c-.4-.2-1-.3-1.5-.3-1.3,0-2.2,.9-2.2,2.4v5h-2v-9.1h2v1c.6-.9,1.5-1.3,2.6-1.3,.6,0,1.1,.1,1.6,.3h0Zm10.3,9.1h-2v-1.1c-.6,.8-1.6,1.3-2.9,1.3-2.5,0-4.6-2-4.6-4.8s2-4.8,4.6-4.8c1.3,0,2.2,.5,2.9,1.3v-1.1h2v9.2Zm-7.3-4.6c0,1.6,1,2.9,2.7,2.9,1.6,0,2.7-1.3,2.7-2.9,0-1.7-1.1-2.9-2.7-2.9-1.7,0-2.7,1.3-2.7,2.9Zm12.5,4.6h-2v-13.7h2v13.7Zm-90.1,28.6c3.1,0,4.7,1.4,4.7,3.8s-1.7,3.8-4.4,3.9l4.4,5.6h-2.7l-4.2-5.6h-1.1v5.6h-2.1v-13.3h5.4Zm-3.3,2.1v3.7h3.3c1.7,0,2.5-.6,2.5-1.9s-.9-1.8-2.5-1.8h-3.3Zm19,11.2h-2v-1c-.6,.8-1.6,1.3-2.9,1.3-2.5,0-4.6-2-4.6-4.8s2-4.8,4.6-4.8c1.3,0,2.2,.5,2.9,1.3v-1.1h2v9.1Zm-7.3-4.5c0,1.6,1,2.9,2.7,2.9,1.6,0,2.7-1.3,2.7-2.9,0-1.7-1.1-2.9-2.7-2.9-1.7,0-2.7,1.3-2.7,2.9Zm18.9-1.2v5.7h-2v-5c0-1.5-.8-2.4-2.1-2.4s-2.4,.8-2.4,2.4v5h-2v-9.1h2v1.1c.7-1.1,1.9-1.3,2.8-1.3,2.2,0,3.7,1.5,3.7,3.6h0Zm10.5-2.1l-1.3,1.4c-.6-.6-1.3-.9-2.2-.9-1.5,0-2.7,1.2-2.7,2.9s1.2,2.9,2.7,2.9c.9,0,1.7-.4,2.2-1l1.2,1.4c-.8,1-2,1.5-3.4,1.5-2.9,0-4.8-2.1-4.8-4.8s1.9-4.8,4.8-4.8c1.5-.1,2.7,.4,3.5,1.4Zm4.3-.2c.7-1,1.9-1.3,2.8-1.3,2.2,0,3.7,1.5,3.7,3.6v5.7h-2v-5c0-1.5-.8-2.4-2.1-2.4s-2.4,.8-2.4,2.4v5h-2v-13.7h2v5.7h0Zm17.6,3.5v.7h-6.7c.3,1.6,1.4,2.3,2.7,2.3,.9,0,1.9-.4,2.6-1l1,1.4c-1.1,1-2.4,1.3-3.7,1.3-2.7,0-4.7-1.9-4.7-4.8s1.9-4.8,4.5-4.8c2.6,.1,4.3,2,4.3,4.9h0Zm-6.7-.8h4.7c-.2-1.4-1-2.2-2.3-2.2-1.4,0-2.2,.9-2.4,2.2Zm15.3-3.7l-.5,2c-.4-.2-1-.3-1.5-.3-1.3,0-2.2,.9-2.2,2.4v5h-2v-9.1h2v1c.6-.9,1.5-1.3,2.6-1.3,.7,0,1.2,.1,1.6,.3h0Z"/><path d="M88.5,277.22h-9.7v-13.3h9.6v2h-7.4v3.6h7.2v2h-7.2v3.7h7.6v2h-.1Zm6.7-5.6h-1.3v5.7h-2.1v-13.3h2.1v5.6h1.3l5-5.6h2.8l-6,6.5,6.4,6.8h-2.9l-5.3-5.7Zm18.7-4.7c-1.1-.7-2.4-1.1-3.7-1.1-1.8,0-3,.8-3,2,0,1.1,1,1.5,2.8,1.8l.9,.1c2.2,.3,4.3,1.2,4.3,3.7,0,2.7-2.5,4.2-5.3,4.2-1.8,0-4-.6-5.4-1.8l1.2-1.7c.9,.8,2.6,1.5,4.2,1.5,1.7,0,3.1-.7,3.1-2,0-1-1-1.5-3-1.8l-1-.1c-2-.3-3.9-1.2-3.9-3.7,0-2.7,2.4-4.2,5.2-4.2,1.9,0,3.5,.5,4.8,1.4l-1.2,1.7h0Zm-23.8,50.3h-2.3l-1.3-3.4h-6l-1.3,3.4h-2.2l5.3-13.3h2.7l5.1,13.3Zm-8.9-5.4h4.4l-2.2-5.7-2.2,5.7Zm14.4-.2h-1.3v5.7h-2.1v-13.3h2.1v5.6h1.3l5-5.6h2.8l-6,6.5,6.4,6.8h-2.9l-5.3-5.7Zm18.7-4.7c-1.1-.7-2.4-1.1-3.7-1.1-1.8,0-3,.8-3,2,0,1.1,1,1.5,2.8,1.8l.9,.1c2.2,.3,4.3,1.2,4.3,3.7,0,2.7-2.5,4.2-5.3,4.2-1.8,0-4-.6-5.4-1.8l1.2-1.7c.9,.8,2.6,1.5,4.2,1.5,1.7,0,3.1-.7,3.1-2,0-1-1-1.5-3-1.8l-1-.1c-2-.3-3.9-1.2-3.9-3.7,0-2.7,2.4-4.2,5.2-4.2,1.9,0,3.5,.5,4.8,1.4l-1.2,1.7h0Zm-25.5,39.9l-1.6,1.5c-.8-1-2.1-1.6-3.6-1.6-2.7,0-4.7,2-4.7,4.8s2,4.8,4.6,4.8c2.4,0,3.8-1.3,4.2-3.5h-3.5v-2h5.9v.5c0,3.8-2.4,7-6.5,7-3.4,0-6.9-2.5-6.9-6.9,0-4,2.9-6.9,7-6.9,2,.1,3.9,.9,5.1,2.3h0Zm7.6,5.7h-1.3v5.7h-2.1v-13.3h2.1v5.6h1.3l5-5.6h2.8l-6,6.5,6.4,6.8h-2.9l-5.3-5.7Zm19.8,5.7h-9.7v-13.3h9.6v2h-7.5v3.6h7.2v2h-7.2v3.7h7.6v2Zm256,118.7h-2.1v-11l-3.9,9.6h-2.3l-3.9-9.5v10.8h-2.1v-13.3h3.3l3.9,9.5,3.9-9.5h3.3v13.4h-.1Zm5.8-12.2c0,.8-.6,1.4-1.4,1.4s-1.4-.6-1.4-1.4,.6-1.4,1.4-1.4,1.4,.6,1.4,1.4Zm-.4,12.2h-2v-9.1h2v9.1Zm10.6-7.9l-1.3,1.4c-.6-.6-1.3-.9-2.2-.9-1.5,0-2.7,1.2-2.7,2.9s1.2,2.9,2.7,2.9c.9,0,1.7-.4,2.2-1l1.2,1.4c-.8,1-2,1.5-3.4,1.5-2.9,0-4.8-2.1-4.8-4.8s1.9-4.8,4.8-4.8c1.5,0,2.7,.5,3.5,1.4h0Zm8.4-1.1l-.5,2c-.4-.2-1-.3-1.5-.3-1.3,0-2.2,.9-2.2,2.4v5h-2v-9.1h2v1c.6-.9,1.5-1.3,2.6-1.3,.7,0,1.1,.1,1.6,.3h0Zm10.8,4.5c0,2.7-2.1,4.8-4.9,4.8s-4.9-2.1-4.9-4.8,2.1-4.8,4.9-4.8,4.9,2.1,4.9,4.8Zm-7.8,0c0,1.7,1.2,2.9,2.9,2.9s2.9-1.2,2.9-2.9-1.2-2.9-2.9-2.9-2.9,1.2-2.9,2.9Zm13.9-1.1h-1.3v5.7h-2.1v-13.3h2.1v5.6h1.3l5-5.6h2.8l-6,6.5,6.4,6.8h-2.9l-5.3-5.7Zm19.1-4.1c0,1.5-.9,2.5-2,3,1.3,.5,2.4,1.5,2.4,3.1,0,2.4-2.3,3.8-5.1,3.8s-5.1-1.4-5.1-3.8c0-1.6,1-2.6,2.4-3.1-1.2-.5-2-1.5-2-3,0-2.4,2.1-3.8,4.8-3.8s4.6,1.4,4.6,3.8h0Zm-7.6,6c0,1.3,1.3,2,2.9,2s2.9-.7,2.9-2-1.3-2.1-2.9-2.1c-1.6,.1-2.9,.8-2.9,2.1Zm.3-5.9c0,1.3,1.2,2,2.6,2s2.6-.7,2.6-2-1.2-2-2.6-2-2.6,.7-2.6,2Zm16.4,2.8c-.6-.3-1.7-.8-2.8-.8s-1.7,.4-1.7,1.1c0,.6,.7,.8,1.5,.9l.9,.1c2,.3,3.2,1.1,3.2,2.7,0,1.7-1.5,3-4.1,3-.9,0-2.6-.2-3.9-1.2l.9-1.5c.7,.5,1.5,.9,3,.9,1.4,0,2.1-.4,2.1-1.1,0-.5-.5-.9-1.6-1l-1-.1c-2-.3-3.1-1.2-3.1-2.7,0-1.8,1.4-2.9,3.8-2.9,1.4,0,2.7,.4,3.7,1l-.9,1.6h0Zm-53.6,42h-1.3v5.7h-2.2v-13.3h2.1v5.6h1.3l5-5.6h2.8l-6,6.5,6.4,6.8h-2.9l-5.2-5.7Zm17.8-4c.02,1.32-.77,2.51-2,3,1.4,.6,2.3,1.6,2.3,3.1,0,2.6-2.3,3.9-4.7,3.9-2,0-3.6-.7-4.6-1.9l1.3-1.4c.8,.9,2,1.4,3.2,1.4,1.5,0,2.6-.7,2.6-2s-1.3-2-2.9-2h-1.5v-1.9h1.6c1.4,0,2.6-.6,2.6-2,0-1.3-1.1-2-2.5-2-1.2,0-2.2,.7-2.7,1.4l-1.5-1.3c.8-1.2,2.2-2.1,4.3-2.1,2.7,0,4.5,1.5,4.5,3.8h0Zm9,2.9c-.6-.3-1.7-.8-2.8-.8s-1.7,.4-1.7,1.1c0,.6,.7,.8,1.5,.9l.9,.1c2,.3,3.2,1.1,3.2,2.7,0,1.7-1.5,3-4.1,3-.9,0-2.6-.2-3.9-1.2l.9-1.5c.7,.5,1.5,.9,3,.9,1.4,0,2.1-.4,2.1-1.1,0-.5-.5-.9-1.6-1l-1-.1c-2-.3-3.1-1.2-3.1-2.7,0-1.8,1.4-2.9,3.8-2.9,1.4,0,2.7,.4,3.7,1l-.9,1.6h0Zm242.4-336.1h-1.2v5.5h-2.7v-13.4h2.7v5.4h1.3l4.4-5.4h3.3l-5.6,6.5,6,6.8h-3.4l-4.8-5.4Zm17.4,1.5c0,2.9-2.1,4.2-4.4,4.2s-4.4-1.3-4.4-4.2v-5.3h2.5v5.1c0,1.5,.8,2.1,1.9,2.1s1.9-.6,1.9-2.1v-5.1h2.5v5.3Zm12.1-.7c0,2.8-1.9,4.8-4.5,4.8-1.3,0-2.2-.5-2.8-1.3v1h-2.4v-13.7h2.5v5.4c.6-.7,1.5-1.2,2.7-1.2,2.6,.2,4.5,2.3,4.5,5Zm-7.3,0c0,1.5,1,2.5,2.4,2.5,1.5,0,2.4-1.1,2.4-2.5s-.9-2.5-2.4-2.5c-1.4,0-2.4,1.1-2.4,2.5Zm17.9,0v.8h-6.5c.3,1.3,1.2,1.9,2.4,1.9,.8,0,1.7-.3,2.3-.9l1.5,1.6c-1,1-2.4,1.4-3.9,1.4-2.8,0-4.8-1.9-4.8-4.8s1.9-4.9,4.7-4.9c2.5,.1,4.3,2.1,4.3,4.9Zm-6.5-.8h4.1c-.2-1.2-.9-1.8-2-1.8-1.2-.1-1.9,.6-2.1,1.8Zm14.8-3.8l-.4,2.5c-.4-.2-1-.3-1.5-.3-1.2,0-1.9,.7-1.9,2.1v5h-2.5v-9.2h2.4v1c.6-.9,1.5-1.3,2.6-1.3,.6,0,1,.1,1.3,.2h0Zm10.4,3.4v5.9h-2.5v-5.1c0-1.3-.7-2.1-1.8-2.1s-1.9,.7-1.9,2.1v5h-2.5v-9.2h2.4v1.1c.7-1,1.7-1.3,2.7-1.3,2.1,0,3.6,1.5,3.6,3.6Zm11.1,1.2v.8h-6.6c.3,1.3,1.2,1.9,2.4,1.9,.8,0,1.7-.3,2.3-.9l1.5,1.6c-1,1-2.4,1.4-3.9,1.4-2.8,0-4.8-1.9-4.8-4.8s1.9-4.9,4.7-4.9c2.6,.1,4.4,2.1,4.4,4.9h0Zm-6.6-.8h4.1c-.2-1.2-.9-1.8-2-1.8-1.2-.1-1.8,.6-2.1,1.8Zm15.2-1.5h-3.3v3.4c0,1.2,.6,1.6,1.4,1.6,.6,0,1.2-.3,1.7-.6l.9,1.9c-.8,.6-1.7,1-3.1,1-2.3,0-3.5-1.3-3.5-3.7v-3.6h-1.8v-2.2h1.8v-2.7h2.5v2.7h3.3v2.2h.1Zm10.7,2.3v.8h-6.5c.3,1.3,1.2,1.9,2.4,1.9,.8,0,1.7-.3,2.3-.9l1.5,1.6c-1,1-2.4,1.4-3.9,1.4-2.8,0-4.8-1.9-4.8-4.8s1.9-4.9,4.7-4.9c2.4,.1,4.2,2.1,4.3,4.9Zm-6.6-.8h4.1c-.2-1.2-.9-1.8-2-1.8-1.2-.1-1.9,.6-2.1,1.8Zm15.1-1.2c-.7-.4-1.9-.7-2.9-.8-.9,0-1.4,.3-1.4,.8s.7,.7,1.5,.8l.8,.1c2,.3,3.1,1.2,3.1,2.8,0,1.9-1.6,3.1-4.2,3.1-1.3,0-2.9-.2-4.1-1.1l1-1.9c.92,.61,2,.92,3.1,.9,1.2,0,1.7-.3,1.7-.9,0-.4-.5-.7-1.5-.8l-.8-.1c-2.1-.3-3.2-1.2-3.2-2.8,0-1.9,1.5-3,3.9-3,1.5,0,2.6,.3,3.9,.9l-.9,2h0Zm-402.6,200.8h-1.2v5.5h-2.7v-13.3h2.7v5.4h1.3l4.4-5.4h3.3l-5.6,6.5,6,6.8h-3.4l-4.8-5.5Zm17.4,1.6c0,2.9-2.1,4.2-4.4,4.2s-4.4-1.3-4.4-4.2v-5.3h2.5v5.1c0,1.5,.8,2.1,1.9,2.1s1.9-.6,1.9-2.1v-5.1h2.5v5.3Zm12.1-.7c0,2.8-1.9,4.8-4.5,4.8-1.3,0-2.2-.5-2.8-1.3v1h-2.4v-13.7h2.5v5.4c.6-.7,1.5-1.2,2.7-1.2,2.6,.1,4.5,2.2,4.5,5h0Zm-7.3,0c0,1.5,1,2.5,2.4,2.5,1.5,0,2.4-1.1,2.4-2.5s-.9-2.5-2.4-2.5c-1.4-.1-2.4,1-2.4,2.5Zm17.9,0v.8h-6.5c.3,1.3,1.2,1.9,2.4,1.9,.8,0,1.7-.3,2.3-.9l1.5,1.6c-1,1-2.4,1.4-3.9,1.4-2.8,0-4.8-1.9-4.8-4.8s1.9-4.9,4.7-4.9c2.5,0,4.3,2,4.3,4.9Zm-6.6-.9h4.1c-.2-1.2-.9-1.8-2-1.8s-1.8,.7-2.1,1.8Zm14.9-3.8l-.4,2.5c-.4-.2-1-.3-1.5-.3-1.2,0-1.9,.7-1.9,2.1v5h-2.5v-9.2h2.4v1c.6-.9,1.5-1.3,2.6-1.3,.6,0,1,.1,1.3,.2h0Zm10.4,3.4v5.9h-2.5v-5.1c0-1.3-.7-2.1-1.8-2.1s-1.9,.7-1.9,2.1v5h-2.5v-9.2h2.4v1.1c.7-1,1.7-1.3,2.7-1.3,2.1,0,3.6,1.5,3.6,3.6Zm11.1,1.3v.8h-6.5c.3,1.3,1.2,1.9,2.4,1.9,.8,0,1.7-.3,2.3-.9l1.5,1.6c-1,1-2.4,1.4-3.9,1.4-2.8,0-4.8-1.9-4.8-4.8s1.9-4.9,4.7-4.9c2.5,0,4.3,2,4.3,4.9Zm-6.6-.9h4.1c-.2-1.2-.9-1.8-2-1.8-1.2,0-1.8,.7-2.1,1.8Zm15.2-1.5h-3.3v3.4c0,1.2,.6,1.6,1.4,1.6,.6,0,1.2-.3,1.7-.6l.9,1.9c-.8,.6-1.7,1-3.1,1-2.3,0-3.5-1.3-3.5-3.7v-3.6h-1.8v-2.2h1.8v-2.8h2.5v2.7h3.3v2.3h.1Zm10.6,2.4v.8h-6.5c.3,1.3,1.2,1.9,2.4,1.9,.8,0,1.7-.3,2.3-.9l1.5,1.6c-1,1-2.4,1.4-3.9,1.4-2.8,0-4.8-1.9-4.8-4.8s1.9-4.9,4.7-4.9c2.5,0,4.3,2,4.3,4.9Zm-6.5-.9h4.1c-.2-1.2-.9-1.8-2-1.8-1.2,0-1.9,.7-2.1,1.8Zm15.1-1.1c-.7-.4-1.9-.7-2.9-.8-.9,0-1.4,.3-1.4,.8s.7,.7,1.5,.8l.8,.1c2,.3,3.1,1.2,3.1,2.8,0,1.9-1.6,3.1-4.2,3.1-1.3,0-2.9-.2-4.1-1.1l1-1.9c.92,.61,2,.92,3.1,.9,1.2,0,1.7-.3,1.7-.9,0-.4-.5-.7-1.5-.8l-.8-.1c-2.1-.3-3.2-1.2-3.2-2.8,0-1.9,1.5-3,3.9-3,1.5,0,2.6,.3,3.9,.9l-.9,2h0ZM49.2,174.62h-1.2v5.5h-2.7v-13.3h2.7v5.4h1.3l4.4-5.4h3.3l-5.6,6.5,6,6.8h-3.4l-4.8-5.5Zm17.4,1.6c0,2.9-2.1,4.2-4.4,4.2s-4.4-1.3-4.4-4.2v-5.3h2.5v5.1c0,1.5,.8,2.1,1.9,2.1s1.9-.6,1.9-2.1v-5.1h2.5v5.3Zm12.1-.7c0,2.8-1.9,4.8-4.5,4.8-1.3,0-2.2-.5-2.8-1.3v1h-2.4v-13.7h2.5v5.4c.6-.7,1.5-1.2,2.7-1.2,2.6,.1,4.5,2.2,4.5,5Zm-7.2,0c0,1.5,1,2.5,2.4,2.5,1.5,0,2.4-1.1,2.4-2.5s-.9-2.5-2.4-2.5-2.4,1-2.4,2.5Zm17.8,0v.8h-6.5c.3,1.3,1.2,1.9,2.4,1.9,.8,0,1.7-.3,2.3-.9l1.5,1.6c-1,1-2.4,1.4-3.9,1.4-2.8,0-4.8-1.9-4.8-4.8s1.9-4.9,4.7-4.9c2.5,0,4.3,2,4.3,4.9Zm-6.5-.9h4.1c-.2-1.2-.9-1.8-2-1.8-1.2,0-1.9,.7-2.1,1.8Zm14.8-3.8l-.4,2.5c-.4-.2-1-.3-1.5-.3-1.2,0-1.9,.7-1.9,2.1v5h-2.5v-9.2h2.4v1c.6-.9,1.5-1.3,2.6-1.3,.6,0,1,.1,1.3,.2h0Zm10.4,3.4v5.9h-2.4v-5.1c0-1.3-.7-2.1-1.8-2.1s-1.9,.7-1.9,2.1v5h-2.5v-9.2h2.4v1.1c.7-1,1.7-1.3,2.7-1.3,2,0,3.5,1.5,3.5,3.6h0Zm11.1,1.3v.8h-6.5c.3,1.3,1.2,1.9,2.4,1.9,.8,0,1.7-.3,2.3-.9l1.5,1.6c-1,1-2.4,1.4-3.9,1.4-2.8,0-4.8-1.9-4.8-4.8s1.9-4.9,4.7-4.9c2.5,0,4.3,2,4.3,4.9h0Zm-6.5-.9h4.1c-.2-1.2-.9-1.8-2-1.8-1.2,0-1.9,.7-2.1,1.8Zm15.1-1.5h-3.3v3.4c0,1.2,.6,1.6,1.4,1.6,.6,0,1.2-.3,1.7-.6l.9,1.9c-.8,.6-1.7,1-3.1,1-2.3,0-3.5-1.3-3.5-3.7v-3.6h-1.8v-2.2h1.8v-2.7h2.5v2.7h3.3v2.2h.1Zm10.7,2.4v.8h-6.5c.3,1.3,1.2,1.9,2.4,1.9,.8,0,1.7-.3,2.3-.9l1.5,1.6c-1,1-2.4,1.4-3.9,1.4-2.8,0-4.8-1.9-4.8-4.8s1.9-4.9,4.7-4.9c2.4,0,4.2,2,4.3,4.9Zm-6.6-.9h4.1c-.2-1.2-.9-1.8-2-1.8-1.2,0-1.9,.7-2.1,1.8Zm15.1-1.1c-.7-.4-1.9-.7-2.9-.8-.9,0-1.4,.3-1.4,.8s.7,.7,1.5,.8l.8,.1c2,.3,3.1,1.2,3.1,2.8,0,1.9-1.6,3.1-4.2,3.1-1.3,0-2.9-.2-4.1-1.1l1-1.9c.92,.61,2,.92,3.1,.9,1.2,0,1.7-.3,1.7-.9,0-.4-.5-.7-1.5-.8l-.8-.1c-2.1-.3-3.2-1.2-3.2-2.8,0-1.9,1.5-3,3.9-3,1.5,0,2.6,.3,3.9,.9l-.9,2Z"/></g><path class="cls-3" d="M166.3,59.02c4.5-26.3-13.1-51.3-39.4-55.8-22.9-4-45.4,8.9-53.5,30.7-10.9-8.3-26.5-6.3-34.8,4.6-3.3,4.3-5.1,9.7-5.1,15.1v.2C13.3,56.02-1.4,74.22,.7,94.52c2,18.8,17.9,33,36.7,33h120.4c19.2,0,34.8-15.6,34.8-34.8,.1-15.9-10.8-29.8-26.3-33.7Zm609.7,0c4.5-26.3-13.1-51.3-39.4-55.8-22.9-4-45.4,8.9-53.5,30.7-10.9-8.3-26.5-6.3-34.8,4.6-3.3,4.3-5.1,9.7-5.1,15.1v.2c-20.3,2.2-35,20.4-32.8,40.7,2,18.8,17.9,33,36.7,33h120.4c19.2,0,31.5-15.6,31.5-34.8,.1-16.3-7.8-29.9-23-33.7h0Zm-306.4,200c4.5-26.3-13.1-51.3-39.4-55.8-22.9-4-45.4,8.9-53.5,30.7-10.9-8.3-26.5-6.3-34.8,4.6-3.3,4.3-5.1,9.7-5.1,15.1v.2c-20.3,2.2-35,20.4-32.8,40.7,2,18.8,17.9,33,36.7,33h120.4c19.2,0,34.8-15.6,34.8-34.8,0-15.9-10.9-29.8-26.3-33.7h0Z"/><path d="M42.8,91.12v5.2h-2.1v-13.3h5.2c3.1,0,4.7,1.5,4.7,4s-1.6,4-4.7,4h-3.1v.1h0Zm0-6v4h3c1.7,0,2.5-.6,2.5-2s-.8-2-2.5-2h-3Zm18.5,7.4c0,2.9-2.1,4.1-4.2,4.1s-4.2-1.2-4.2-4.1v-5.2h2v5.1c0,1.8,1,2.4,2.2,2.4s2.2-.6,2.2-2.4v-5.1h2v5.2Zm12.5-.7c0,2.8-2,4.8-4.6,4.8-1.3,0-2.2-.5-2.9-1.3v1.1h-2v-13.7h2v5.7c.6-.8,1.6-1.3,2.9-1.3,2.5-.1,4.6,1.9,4.6,4.7Zm-7.6,0c0,1.7,1.1,2.9,2.7,2.9,1.7,0,2.7-1.3,2.7-2.9s-1-2.9-2.7-2.9c-1.6,0-2.7,1.2-2.7,2.9Zm12,4.5h-2v-13.7h2v13.7Zm5.5-12.2c0,.8-.6,1.4-1.4,1.4s-1.4-.6-1.4-1.4,.6-1.4,1.4-1.4,1.4,.6,1.4,1.4Zm-.4,12.2h-2v-9.1h2v9.1Zm10.7-7.8l-1.3,1.4c-.6-.6-1.3-.9-2.2-.9-1.5,0-2.7,1.2-2.7,2.9s1.2,2.9,2.7,2.9c.9,0,1.7-.4,2.2-1l1.2,1.4c-.8,1-2,1.5-3.4,1.5-2.9,0-4.8-2.1-4.8-4.8s1.9-4.8,4.8-4.8c1.4-.1,2.7,.4,3.5,1.4h0Zm19.3-2.9l-1.8,1.2c-.8-1.2-2.1-1.9-3.7-1.9-2.7,0-4.7,2-4.7,4.8s2,4.8,4.7,4.8c1.6,0,2.9-.7,3.7-1.9l1.8,1.3c-1.1,1.7-3.1,2.7-5.5,2.7-4.1,0-7-2.9-7-6.9s2.9-6.9,7-6.9c2.4,0,4.5,1,5.5,2.8h0Zm4.6,10.7h-2v-13.7h2v13.7Zm12.2-4.5c0,2.7-2.1,4.8-4.9,4.8s-4.9-2.1-4.9-4.8,2.1-4.8,4.9-4.8,4.9,2.1,4.9,4.8Zm-7.7,0c0,1.7,1.2,2.9,2.9,2.9s2.9-1.2,2.9-2.9-1.2-2.9-2.9-2.9-2.9,1.2-2.9,2.9Zm18.5,.7c0,2.9-2.1,4.1-4.2,4.1s-4.2-1.2-4.2-4.1v-5.2h2v5.1c0,1.8,1,2.4,2.2,2.4s2.2-.6,2.2-2.4v-5.1h2v5.2Zm9.8-4.2v-5.7h2v13.7h-2v-1.1c-.6,.8-1.6,1.3-2.9,1.3-2.5,0-4.6-2-4.6-4.8s2-4.8,4.6-4.8c1.3,.1,2.3,.6,2.9,1.4h0Zm-5.4,3.5c0,1.6,1,2.9,2.7,2.9,1.6,0,2.7-1.3,2.7-2.9,0-1.7-1.1-2.9-2.7-2.9s-2.7,1.3-2.7,2.9Zm212.7,203.2h-9.7v-13.3h9.6v2h-7.4v3.6h7.2v2h-7.2v3.7h7.6v2h-.1Zm9.7-8v-5.7h2v13.7h-2v-1.1c-.6,.8-1.6,1.3-2.9,1.3-2.5,0-4.6-2-4.6-4.8s2-4.8,4.6-4.8c1.3,.1,2.3,.6,2.9,1.4Zm-5.4,3.5c0,1.6,1,2.9,2.7,2.9,1.6,0,2.7-1.3,2.7-2.9,0-1.7-1.1-2.9-2.7-2.9-1.7,0-2.7,1.3-2.7,2.9Zm17.1-3.5v-1.1h2v8.5c0,2.9-1.8,4.6-4.9,4.6-1.4,0-2.9-.4-3.8-1.1l.7-1.7c.9,.6,2,.9,3.1,.9,1.9,0,2.9-1,2.9-2.7v-.7c-.7,.9-1.7,1.3-3,1.3-2.1,0-4.2-1.7-4.2-4.7s2.1-4.7,4.2-4.7c1.3,.1,2.3,.6,3,1.4h0Zm-5.2,3.4c0,1.5,1,2.8,2.7,2.8,1.6,0,2.7-1.2,2.7-2.8s-1.1-2.8-2.7-2.8c-1.7,0-2.7,1.2-2.7,2.8Zm18.5,.1v.7h-6.7c.3,1.6,1.4,2.3,2.7,2.3,.9,0,1.9-.4,2.6-1l1,1.4c-1.1,1-2.4,1.3-3.7,1.3-2.7,0-4.7-1.9-4.7-4.8s1.9-4.8,4.5-4.8c2.5,.1,4.3,2,4.3,4.9h0Zm-6.8-.8h4.7c-.2-1.4-1-2.2-2.3-2.2-1.4,0-2.2,.9-2.4,2.2Zm26.4-5.4l-1.8,1.2c-.8-1.2-2.1-1.9-3.7-1.9-2.7,0-4.7,2-4.7,4.8s2,4.8,4.7,4.8c1.6,0,2.9-.7,3.7-1.9l1.8,1.3c-1.1,1.7-3.1,2.7-5.5,2.7-4.1,0-7-2.9-7-6.9s2.9-6.9,7-6.9c2.3,0,4.4,1,5.5,2.8Zm4.5,10.7h-2v-13.7h2v13.7Zm12.3-4.5c0,2.7-2.1,4.8-4.9,4.8s-4.9-2.1-4.9-4.8,2.1-4.8,4.9-4.8,4.9,2.1,4.9,4.8Zm-7.8,0c0,1.7,1.2,2.9,2.9,2.9s2.9-1.2,2.9-2.9-1.2-2.9-2.9-2.9-2.9,1.2-2.9,2.9Zm18.6,.7c0,2.9-2.1,4.1-4.2,4.1s-4.2-1.2-4.2-4.1v-5.2h2v5.1c0,1.8,1,2.4,2.2,2.4s2.2-.6,2.2-2.4v-5.1h2v5.2h0Zm9.7-4.2v-5.7h2v13.7h-2v-1.1c-.6,.8-1.6,1.3-2.9,1.3-2.5,0-4.6-2-4.6-4.8s2-4.8,4.6-4.8c1.4,.1,2.3,.6,2.9,1.4h0Zm-5.3,3.5c0,1.6,1,2.9,2.7,2.9,1.6,0,2.7-1.3,2.7-2.9,0-1.7-1.1-2.9-2.7-2.9-1.7,0-2.7,1.3-2.7,2.9Zm201-199.4v5.2h-2.1v-13.3h5.2c3.1,0,4.7,1.5,4.7,4s-1.6,4-4.7,4h-3.1v.1h0Zm0-6v4h3c1.7,0,2.5-.6,2.5-2s-.8-2-2.5-2h-3Zm16.3,2.2l-.5,2c-.4-.2-1-.3-1.5-.3-1.3,0-2.2,.9-2.2,2.4v5h-2v-9.1h2v1c.6-.9,1.5-1.3,2.6-1.3,.7,0,1.1,.1,1.6,.3h0Zm4.4-3.2c0,.8-.6,1.4-1.4,1.4s-1.4-.6-1.4-1.4,.6-1.4,1.4-1.4,1.4,.6,1.4,1.4Zm-.4,12.2h-2v-9.1h2v9.1Zm7.8,0h-2.4l-3.7-9.1h2.2l2.7,7,2.7-7h2.1l-3.6,9.1Zm14.1,0h-2v-1.1c-.6,.8-1.6,1.3-2.9,1.3-2.5,0-4.6-2-4.6-4.8s2-4.8,4.6-4.8c1.3,0,2.2,.5,2.9,1.3v-1.1h2v9.2h0Zm-7.4-4.5c0,1.6,1,2.9,2.7,2.9,1.6,0,2.7-1.3,2.7-2.9,0-1.7-1.1-2.9-2.7-2.9-1.7,0-2.7,1.3-2.7,2.9Zm16.7-2.8h-3.5v4c0,1.2,.6,1.7,1.4,1.7,.6,0,1.3-.3,1.8-.6l.8,1.6c-.7,.5-1.7,.9-2.8,.9-2.1,0-3.3-1.1-3.3-3.5v-4h-1.8v-1.8h1.8v-2.8h2v2.8h3.5v1.7h.1Zm10.6,2.8v.7h-6.8c.3,1.6,1.4,2.3,2.7,2.3,.9,0,1.9-.4,2.6-1l1,1.4c-1.1,1-2.4,1.3-3.7,1.3-2.7,0-4.7-1.9-4.7-4.8s1.9-4.8,4.5-4.8c2.6,.1,4.4,2,4.4,4.9h0Zm-6.8-.8h4.7c-.2-1.4-1-2.2-2.3-2.2-1.4,0-2.2,.9-2.4,2.2Zm26.4-5.4l-1.8,1.2c-.8-1.2-2.1-1.9-3.7-1.9-2.7,0-4.7,2-4.7,4.8s2,4.8,4.7,4.8c1.6,0,2.9-.7,3.7-1.9l1.8,1.3c-1.1,1.7-3.1,2.7-5.5,2.7-4.1,0-7-2.9-7-6.9s2.9-6.9,7-6.9c2.3,0,4.4,1,5.5,2.8h0Zm4.5,10.7h-2v-13.7h2v13.7Zm12.3-4.5c0,2.7-2.1,4.8-4.9,4.8s-4.9-2.1-4.9-4.8,2.1-4.8,4.9-4.8,4.9,2.1,4.9,4.8Zm-7.8,0c0,1.7,1.2,2.9,2.9,2.9s2.9-1.2,2.9-2.9-1.2-2.9-2.9-2.9-2.9,1.2-2.9,2.9Zm18.6,.7c0,2.9-2.1,4.1-4.2,4.1s-4.2-1.2-4.2-4.1v-5.2h2v5.1c0,1.8,1,2.4,2.2,2.4s2.2-.6,2.2-2.4v-5.1h2v5.2Zm9.7-4.2v-5.7h2v13.7h-2v-1.1c-.6,.8-1.6,1.3-2.9,1.3-2.5,0-4.6-2-4.6-4.8s2-4.8,4.6-4.8c1.4,.1,2.3,.6,2.9,1.4h0Zm-5.3,3.5c0,1.6,1,2.9,2.7,2.9,1.6,0,2.7-1.3,2.7-2.9,0-1.7-1.1-2.9-2.7-2.9-1.7,0-2.7,1.3-2.7,2.9Z"/><path class="cls-5" d="M469.6,59.02c4.5-26.3-13.1-51.3-39.4-55.8-22.9-4-45.4,8.9-53.5,30.7-10.9-8.3-26.5-6.3-34.8,4.6-3.3,4.3-5.1,9.7-5.1,15.1v.2c-20.3,2.2-35,20.4-32.8,40.7,2,18.8,17.9,33,36.7,33h120.4c19.2,0,34.8-15.6,34.8-34.8,0-15.9-10.9-29.8-26.3-33.7Z"/></g><g><path d="M359.88,97.91h-2.23v-11.39l-4.04,10.04h-2.35l-4.04-9.93v11.28h-2.23v-13.84h3.43l4.02,9.89,4.02-9.89h3.43v13.84Z"/><path d="M371.87,93.89c0,3.02-2.18,4.26-4.39,4.26s-4.39-1.25-4.39-4.26v-5.46h2.08v5.27c0,1.83,1.02,2.5,2.31,2.5s2.31-.67,2.31-2.5v-5.27h2.08v5.46Z"/><path d="M376.9,97.91h-2.08v-14.24h2.08v14.24Z"/><path d="M386.4,90.31h-3.63v4.12c0,1.28,.67,1.77,1.5,1.77,.64,0,1.34-.29,1.91-.64l.82,1.65c-.76,.51-1.72,.94-2.91,.94-2.15,0-3.4-1.16-3.4-3.68v-4.16h-1.89v-1.88h1.89v-2.87h2.08v2.87h3.63v1.88Z"/><path d="M391.22,85.16c0,.82-.64,1.44-1.46,1.44s-1.44-.62-1.44-1.44,.62-1.46,1.44-1.46,1.46,.64,1.46,1.46Zm-.42,12.75h-2.08v-9.47h2.08v9.47Z"/><path d="M399.28,93.58h-5.73v-1.88h5.73v1.88Z"/><path d="M414.51,86.7l-1.87,1.25c-.84-1.23-2.21-2-3.87-2-2.83,0-4.9,2.05-4.9,5.03s2.08,5.03,4.9,5.03c1.64,0,3-.74,3.86-1.99l1.82,1.33c-1.18,1.73-3.25,2.8-5.68,2.8-4.25,0-7.25-3.05-7.25-7.18s3-7.18,7.25-7.18c2.46,0,4.65,1.1,5.74,2.9Z"/><path d="M419.05,97.91h-2.08v-14.24h2.08v14.24Z"/><path d="M431.61,93.17c0,2.84-2.18,4.98-5.1,4.98s-5.09-2.15-5.09-4.98,2.17-4.98,5.09-4.98,5.1,2.15,5.1,4.98Zm-8.07,0c0,1.79,1.28,3.04,2.97,3.04s2.98-1.25,2.98-3.04-1.29-3.04-2.98-3.04-2.97,1.25-2.97,3.04Z"/><path d="M442.66,93.89c0,3.02-2.17,4.26-4.39,4.26s-4.39-1.25-4.39-4.26v-5.46h2.08v5.27c0,1.83,1.02,2.5,2.31,2.5s2.31-.67,2.31-2.5v-5.27h2.08v5.46Z"/><path d="M452.64,89.58v-5.91h2.07v14.24h-2.07v-1.14c-.65,.84-1.63,1.38-2.98,1.38-2.65,0-4.74-2.09-4.74-4.98s2.09-4.98,4.74-4.98c1.34,0,2.32,.55,2.98,1.39Zm-5.59,3.59c0,1.66,1.08,3.04,2.86,3.04s2.86-1.31,2.86-3.04-1.15-3.04-2.86-3.04-2.86,1.37-2.86,3.04Z"/></g></svg>