<svg xmlns="http://www.w3.org/2000/svg" xmlns:xlink="http://www.w3.org/1999/xlink" width="1045" height="409" xmlns:v="https://vecta.io/nano"><style><![CDATA[.B{fill-rule:nonzero}.C{fill:#fff}.D{stroke:#c22e4a}.E{fill:#fafafa}.F{fill:#000}.G{stroke-dasharray:2}.H{stroke-width:.75}.I{fill:#c72d48}.J{fill:#e8c4c5}.K{fill:#c22e4a}]]></style><defs><path id="A" d="M0 0h1045v409H0z"/><path d="M.472.619c-.935.972-.458 3.236 1.4 5.927 1.75 2.589 4.667 4.746 4.085 7.656C5.256 17.975 0 18.299 0 18.299c3.509.969 7.253.932 10.738-.106 5.728-2.157 6.537-6.138 9.92-8.843 1.051-.795 2.376-1.216 3.734-1.187h.458c.351 0 0-.324-.229-.648a2.47 2.47 0 0 1-.701-.423 9.88 9.88 0 0 1-.584-.864c-.363-.515-.972-.836-1.636-.864a8.41 8.41 0 0 0-3.542.593 7.89 7.89 0 0 1-4.859.379C10.441 5.517 4.997-.001 1.899.001 1.34-.016.806.214.461.621" id="B"/><linearGradient x1="-1309.2%" y1="1247.5%" x2="-1304.6%" y2="1247.5%" id="C"><stop stop-color="#2a59a2" offset="0%"/></linearGradient><path d="M.429.611c-.861.959-.422 3.195 1.289 5.851v.107c2.066 3.108 5.725 4.797 9.456 4.365.422-.418.968-1.17 1.827-2.129-1.189-1.985-2.758-3.721-4.619-5.109-.753-.533-1.504-1.17-2.365-1.703-.211-.107-.323-.209-.538-.32C4.407.794 3.118.217 1.745.001 1.236-.015.749.206.429.598" id="D"/><linearGradient x1="-2303.5%" y1="2213.6%" x2="-2295.4%" y2="2213.6%" id="E"><stop stop-color="#91d3f2" offset="0%"/><stop stop-color="#6fb2de" offset="26.6%"/><stop stop-color="#5598ce" offset="52.1%"/><stop stop-color="#4b8fc8" offset="67.3%"/></linearGradient><path d="M11.758.214c-1.634 1.781-3.476 3.381-5.493 4.767C4.496 6.375 2.299 7.192 0 7.313a18.29 18.29 0 0 0 10.295-.106c1.442-.551 2.768-1.34 3.917-2.332.519-.637.796-1.421.784-2.225.027-.901-.122-1.8-.439-2.65a21.37 21.37 0 0 1-2.799.208" id="F"/><linearGradient x1="-2152.5%" y1="2606.6%" x2="-2144.9%" y2="2606.6%" id="G"><stop stop-color="#2c9ec7" offset="0%"/><stop stop-color="#2c63a5" offset="40.4%"/><stop stop-color="#395da1" offset="100%"/></linearGradient><path d="M0 1.996A25.97 25.97 0 0 0 3 1.8c-.12-.196-.235-.5-.36-.701C2.513.708 2.31.336 2.039 0L0 2" id="H"/><linearGradient x1="-11946.7%" y1="11169.4%" x2="-11906.3%" y2="11169.4%" id="I"><stop stop-color="#4faac4" offset="0%"/><stop stop-color="#2f75b1" offset=".2%"/><stop stop-color="#356eac" offset="100%"/></linearGradient><path d="M5.115 5C6.406 3.565 8.088 2.452 10 1.77c-1.8.799-3.853 1.02-5.814.626C2.663 1.792 1.252.984 0 0a24.98 24.98 0 0 1 5.115 4.998" id="J"/><linearGradient x1="-3444.3%" y1="4752.8%" x2="-3432.6%" y2="4752.8%" id="K"><stop stop-color="#4faac4" offset="0%"/><stop stop-color="#2f81b6" offset=".2%"/><stop stop-color="#3b5ea9" offset="100%"/></linearGradient><path d="M0 8a.99.99 0 0 0 .273-.261L0 8m.452-5.413A8.75 8.75 0 0 1 .904 5.53c.031.79-.196 1.568-.646 2.211C2.482 5.549 3.524 2.86 5.737.822l.678-.501A15.66 15.66 0 0 1 .443 2.59M6.415.321L7 0c-.208.081-.404.189-.585.321" id="L"/><linearGradient x1="-4935.6%" y1="3290.9%" x2="-4919%" y2="3290.9%" id="M"><stop stop-color="#4faac4" offset="0%"/><stop stop-color="#1e3773" offset=".2%"/><stop stop-color="#203370" offset="100%"/></linearGradient><path d="M4.511.364C2.724 1.091 1.161 2.353 0 4.005l.645 1.173c.107.23.211.588.322.823C3.171 5.509 5.3 4.679 7.291 3.535a4.49 4.49 0 0 1 2.255-.461c.085-.09.203-.133.32-.118.322 0 0-.353-.32-.588a3.32 3.32 0 0 1-.645-.461A10.72 10.72 0 0 1 8.364.97C8.085.35 7.489-.022 6.859.03 6.705.01 6.55 0 6.395 0c-.646.029-1.284.158-1.897.383" id="N"/><linearGradient x1="-3163.2%" y1="4422.3%" x2="-3152.6%" y2="4422.3%" id="O"><stop stop-color="#4faac4" offset="0%"/><stop stop-color="#2c5a9a" offset=".2%"/><stop stop-color="#374580" offset="100%"/></linearGradient><path d="M5.887 7.778C5.194 11.666 0 12 0 12c2.313-.211 4.514-1.06 6.34-2.445C8.417 8.101 10.316 6.424 12 4.556 8.013 4.904 4.138 3.165 1.85 0c1.73 2.667 4.612 4.779 4.037 7.778" id="P"/><linearGradient x1="-2774.3%" y1="2068.3%" x2="-2764.6%" y2="2068.3%" id="Q"><stop stop-color="#38b1da" offset="0%"/><stop stop-color="#38b1da" offset="11.2%"/><stop stop-color="#326fb5" offset="100%"/></linearGradient><path id="R" d="M41.303 28.924a7.24 7.24 0 0 0-3.82-1.144c-1.51 0-2.578.595-2.578 1.617s1.164 1.29 2.781 1.554l.76.124c2.405.395 4.291 1.423 4.291 3.775 0 2.973-2.616 4.386-5.512 4.386a9.36 9.36 0 0 1-5.677-1.761l1.395-2.163c1.234.939 2.74 1.449 4.291 1.452 1.49 0 2.647-.586 2.647-1.626 0-.933-.984-1.279-2.858-1.579l-.857-.133c-2.376-.375-4.109-1.423-4.109-3.857 0-2.809 2.501-4.27 5.368-4.27a9.47 9.47 0 0 1 5.148 1.435l-1.268 2.19z"/><path id="S" d="M158.966 38.997h-2.443v-1.03a3.42 3.42 0 0 1-2.789 1.27c-2.554-.211-4.519-2.344-4.519-4.907s1.965-4.696 4.519-4.907c1.08-.039 2.114.435 2.789 1.279v-1.028h2.443v9.322zm-7.187-4.663a2.41 2.41 0 0 0 4.813-.213 2.41 2.41 0 0 0-2.408-2.357 2.4 2.4 0 0 0-2.405 2.569"/><path id="T" d="M151.211 81.567a6.22 6.22 0 0 0-3.258-.935c-1.419 0-2.354.597-2.354 1.554 0 .831.724 1.241 2.028 1.399l1.177.147c2.114.273 3.345 1.146 3.345 2.776 0 1.892-1.703 3.08-4.384 3.08-1.484.028-2.937-.418-4.151-1.272l.726-1.177c.984.759 2.206 1.143 3.447 1.084 1.681 0 2.743-.557 2.743-1.608 0-.799-.666-1.281-2.081-1.45l-1.188-.138c-2.239-.273-3.289-1.27-3.289-2.754 0-1.883 1.588-3.018 3.973-3.018a7.28 7.28 0 0 1 3.953 1.084l-.686 1.228z"/><path id="U" d="M125.09 362.923v6.169h-1.555v-5.656c.098-.799-.167-1.6-.723-2.182s-1.343-.885-2.146-.824a2.93 2.93 0 0 0-3.049 3.049v5.614h-1.577v-9.955h1.555v1.419a3.94 3.94 0 0 1 3.353-1.619c1.096-.086 2.176.301 2.969 1.062s1.223 1.824 1.182 2.922"/><path id="V" d="M135.33 361.244a6.22 6.22 0 0 0-3.258-.935c-1.419 0-2.354.597-2.354 1.554 0 .831.724 1.241 2.028 1.397l1.177.147c2.114.275 3.345 1.146 3.345 2.774 0 1.892-1.703 3.08-4.384 3.08a6.99 6.99 0 0 1-4.151-1.272l.726-1.177c.985.757 2.206 1.141 3.447 1.081 1.681 0 2.743-.555 2.743-1.608 0-.799-.666-1.281-2.081-1.45l-1.188-.135c-2.239-.273-3.289-1.27-3.289-2.754 0-1.883 1.588-3.018 3.973-3.018a7.28 7.28 0 0 1 3.953 1.084l-.686 1.232z"/><path id="W" d="M148.417 369.086h-1.555v-1.481c-.873 1.112-2.226 1.737-3.638 1.681a5.18 5.18 0 0 1 0-10.353 4.43 4.43 0 0 1 3.638 1.681v-1.483h1.555v9.955zm-8.577-4.981c.08 1.941 1.705 3.458 3.647 3.405s3.482-1.656 3.456-3.599-1.607-3.505-3.55-3.506c-.968-.001-1.895.394-2.566 1.092s-1.027 1.64-.987 2.608"/><path id="X" d="M105.995 297.822a5.24 5.24 0 0 1-8.92 3.804 5.24 5.24 0 0 1 3.674-8.973 5.11 5.11 0 0 1 3.724 1.468c.99.975 1.539 2.312 1.522 3.702m-8.883 0a3.64 3.64 0 0 0 3.679 3.575 3.64 3.64 0 0 0 3.596-3.659 3.64 3.64 0 0 0-3.639-3.616 3.57 3.57 0 0 0-3.636 3.7"/><path id="Y" d="M121.567 289.314c.005.296-.111.581-.32.79s-.495.325-.791.32a1.11 1.11 0 1 1 0-2.221 1.11 1.11 0 0 1 1.11 1.11m-.326 13.484h-1.577v-9.953h1.577v9.953z"/><path id="Z" d="M154.687 288.084c2.743-.178 5.357 1.184 6.783 3.533a7.37 7.37 0 0 1 0 7.647c-1.426 2.35-4.04 3.712-6.783 3.533h-5.539v-14.714h5.539zm-3.847 1.597v11.519h3.847c2.155.153 4.215-.91 5.339-2.755s1.124-4.163 0-6.008-3.184-2.908-5.339-2.755h-3.847z"/><path id="a" d="M197.672 302.801h-1.555v-1.481a4.4 4.4 0 0 1-3.638 1.681 5.18 5.18 0 0 1 0-10.353 4.43 4.43 0 0 1 3.638 1.681v-1.483h1.555v9.955zm-8.577-4.981c.08 1.941 1.705 3.458 3.647 3.405s3.482-1.656 3.456-3.599-1.607-3.505-3.55-3.506c-.968-.001-1.895.394-2.566 1.092s-1.027 1.64-.987 2.608"/><path id="b" d="M808.974 9.178a7.27 7.27 0 0 1-.049.846h-6.609a2.25 2.25 0 0 0 2.396 1.934c.864-.018 1.696-.331 2.356-.888l1.472 1.617a5.66 5.66 0 0 1-3.973 1.415 4.61 4.61 0 0 1-4.839-4.885c-.097-1.298.361-2.575 1.26-3.516s2.154-1.457 3.455-1.42c1.27-.012 2.486.513 3.349 1.446s1.292 2.186 1.181 3.451m-6.649-.866h4.129c-.105-1.062-.997-1.871-2.064-1.871s-1.96.809-2.064 1.871"/><path id="c" d="M880.936 64.462h-1.555v-1.481a4.4 4.4 0 0 1-3.638 1.681 5.18 5.18 0 0 1 0-10.353 4.43 4.43 0 0 1 3.638 1.681v-1.481h1.555v9.953zm-8.577-4.981c.08 1.941 1.705 3.458 3.647 3.405s3.482-1.656 3.456-3.599-1.607-3.505-3.55-3.506c-.968-.001-1.895.394-2.566 1.092s-1.027 1.64-.987 2.608"/><path id="d" d="M753.861 100.266h44.644v17.33h-44.644z"/><path id="e" d="M770.089 214.04c-.781-.501-1.686-.773-2.614-.784-1.035 0-1.766.409-1.766 1.11s.797.888 1.903 1.066l.52.087c1.646.271 2.936.975 2.936 2.58 0 2.034-1.79 3-3.775 3a6.4 6.4 0 0 1-3.884-1.206l.955-1.481c.844.642 1.875.991 2.936.993 1.022 0 1.81-.4 1.81-1.11 0-.64-.666-.877-1.957-1.079l-.584-.093c-1.626-.255-2.809-.973-2.809-2.638 0-1.923 1.71-2.922 3.673-2.922 1.243-.017 2.465.324 3.52.982l-.864 1.497z"/><path id="f" d="M594.723 198.999h80.884v17.33h-80.884z"/><path id="g" d="M662.262 167.763l-1.581.968c-.518-.81-1.421-1.292-2.383-1.27a3.02 3.02 0 0 0-2.876 3.015 3.02 3.02 0 0 0 2.876 3.015 2.82 2.82 0 0 0 2.403-1.264l1.499 1.079c-1.325 1.856-3.772 2.527-5.859 1.607s-3.241-3.179-2.765-5.409 2.454-3.82 4.735-3.806c1.59-.061 3.093.726 3.949 2.067"/><path id="h" d="M670.714 167.586h-2.856v7.497h-1.837v-7.497h-2.858v-1.717h7.551z"/><path id="i" d="M284.636 165.585h41.099v41.096h-41.099z"/></defs><g fill="none" fill-rule="evenodd"><path d="M281 208h115m-115 9h115m-115 49h115m-115-9h115" stroke="#e8c4c5" class="G"/><path d="M765 0h279v355H765z" class="B E"/><mask id="j" class="C"><use xlink:href="#A"/></mask><g mask="url(#j)" stroke="#bababa" class="G"><path d="M764.841.573h279.586v354.482H764.841V.573z"/></g><path d="M1 1h279v408H1z" class="B E"/><mask id="k" class="C"><use xlink:href="#B" href="#A"/></mask><g mask="url(#k)" stroke="#bababa" class="G"><path d="M.573.573h279.586v407.856H.573V.573z"/></g><g class="B"><path d="M786 54h236v54H786zM22 55h236v54H22z" fill="#e9e9e9"/><path d="M39 72h26v7H39z" class="J"/><g class="I"><path d="M66 98H38V70h28v28zm-25.84-2.153h23.866V71.971H40.158l.002 23.875z"/><path d="M39 79h26v2H39zm5-11h3v6h-3zm12 0h3v6h-3zm-3 24h-1.786v-5.861L49 86.904v-1.531L53 84z"/></g><path d="M22 126h236v54H22zm0 69h236v54H22zm0 71h236v54H22zm0 69h236v54H22zm764-174h236v54H786zm1 109h230v54H787z" fill="#e9e9e9"/></g><mask id="l" class="C"><use xlink:href="#C" href="#A"/></mask><g class="B F"><g mask="url(#l)"><use xlink:href="#R"/><path d="M51.552 31.908h-3.376v3.402c0 1.166.615 1.588 1.395 1.588a3.64 3.64 0 0 0 1.75-.606l.924 1.963a5.2 5.2 0 0 1-3.089.982c-2.307 0-3.493-1.308-3.493-3.722v-3.606h-1.799v-2.234h1.799v-2.769h2.512v2.769h3.378v2.234zm8.6-2.28l-.375 2.492a4.07 4.07 0 0 0-1.519-.298c-.554-.034-1.095.181-1.475.586a1.86 1.86 0 0 0-.488 1.51v5.079H53.78V29.67h2.443v1.019a2.94 2.94 0 0 1 2.625-1.27c.444-.009.887.059 1.308.202m10.067 4.701a7.24 7.24 0 0 1-.049.846h-6.611a2.25 2.25 0 0 0 2.396 1.934c.864-.018 1.696-.331 2.356-.888l1.472 1.617a5.66 5.66 0 0 1-3.973 1.415 4.91 4.91 0 0 1-4.886-4.845 4.91 4.91 0 0 1 4.762-4.968c1.27-.012 2.486.513 3.349 1.446s1.292 2.186 1.181 3.451m-6.649-.866h4.126c-.11-1.057-1.001-1.86-2.063-1.86s-1.953.803-2.063 1.86m17.885 5.533h-2.443v-1.03a3.42 3.42 0 0 1-2.789 1.27c-2.554-.211-4.519-2.344-4.519-4.907s1.965-4.696 4.519-4.907c1.08-.039 2.114.435 2.789 1.279v-1.028h2.443v9.322zm-7.187-4.663a2.41 2.41 0 1 0 2.403-2.569 2.4 2.4 0 0 0-2.405 2.569m24.941-1.273v5.936h-2.501v-5.128c0-1.346-.684-2.087-1.817-2.087a1.91 1.91 0 0 0-1.972 2.107v5.108h-2.51v-5.128c0-1.346-.666-2.087-1.819-2.087a1.91 1.91 0 0 0-1.972 2.107v5.108h-2.512V29.67h2.443v1.097a3.12 3.12 0 0 1 2.743-1.346 3.53 3.53 0 0 1 3.078 1.597 3.51 3.51 0 0 1 3.165-1.597 3.47 3.47 0 0 1 3.673 3.64m5.424-6.433a1.601 1.601 0 1 1-3.202-.018 1.6 1.6 0 0 1 1.597-1.599c.429-.003.841.167 1.143.471s.469.717.463 1.146m-.335 12.371h-2.51v-9.327h2.512l-.002 9.327zm11.447-5.938v5.936h-2.51v-5.128c0-1.346-.666-2.087-1.819-2.087a1.91 1.91 0 0 0-1.972 2.107v5.108h-2.512V29.67h2.443v1.097a3.12 3.12 0 0 1 2.743-1.346 3.47 3.47 0 0 1 3.627 3.635m9.17-2.338v-1.039h2.463v8.552a4.56 4.56 0 0 1-5.032 4.801c-1.441.031-2.859-.36-4.08-1.126l.888-2.05a5.51 5.51 0 0 0 3.08.953 2.38 2.38 0 0 0 2.665-2.472v-.655c-.706.846-1.767 1.312-2.867 1.259-2.433-.258-4.279-2.31-4.279-4.757s1.846-4.499 4.279-4.757c1.112-.048 2.181.43 2.887 1.29m-4.599 3.473c.053 1.281 1.125 2.281 2.407 2.246s2.298-1.092 2.281-2.374-1.059-2.313-2.341-2.315a2.32 2.32 0 0 0-1.706.71 2.31 2.31 0 0 0-.642 1.732m20.231-8.658a6.47 6.47 0 0 1 6.996 6.733 6.47 6.47 0 0 1-6.996 6.733h-5.552V25.531h5.552zm-2.867 2.509v8.439h2.838c1.149.107 2.286-.302 3.101-1.118s1.226-1.953 1.118-3.101a3.86 3.86 0 0 0-4.22-4.219h-2.838z"/><use xlink:href="#S"/><path d="M168.376 31.908h-3.376v3.402c0 1.166.615 1.588 1.395 1.588a3.64 3.64 0 0 0 1.75-.606l.924 1.963a5.2 5.2 0 0 1-3.089.982c-2.307 0-3.493-1.308-3.493-3.722v-3.606h-1.799v-2.234h1.799v-2.769h2.512v2.769h3.376l.002 2.234z"/><use xlink:href="#S" x="20.692"/></g><path d="M96 89H86V75h9.91v1.519h-8.275v4.691h8.02v1.5h-8.02v4.79H96zm7.895 1h-1.781L98 80h1.65l3.369 8.399L106.391 80H108z"/></g><mask id="m" class="C"><use xlink:href="#D" href="#A"/></mask><g class="B F"><g mask="url(#m)"><path d="M119.617 84.392c.001.197-.009.393-.031.588h-7.98a3.38 3.38 0 0 0 1.087 2.355 3.39 3.39 0 0 0 2.435.894c1.172-.002 2.298-.449 3.151-1.252l.842 1.073c-1.094 1.053-2.571 1.615-4.089 1.554a5.18 5.18 0 0 1-.093-10.353c1.317.017 2.568.579 3.455 1.553a4.75 4.75 0 0 1 1.222 3.585m-7.995-.684h6.392a3.11 3.11 0 0 0-3.109-3.058c-1.735-.022-3.181 1.325-3.28 3.058m19.968-.465v6.169h-1.555v-5.656c.098-.799-.167-1.6-.723-2.182s-1.343-.885-2.146-.824a2.93 2.93 0 0 0-3.049 3.049v5.614h-1.577v-9.953h1.555v1.426a3.94 3.94 0 0 1 3.353-1.619c1.096-.086 2.176.301 2.969 1.062a3.85 3.85 0 0 1 1.182 2.922m10.167-2.374h-4.3v5.017c0 1.554.819 2.238 1.977 2.238a3.62 3.62 0 0 0 2.09-.704l.735 1.188c-.848.648-1.887.996-2.954.988-2.145 0-3.416-1.177-3.416-3.678v-5.05h-2.174V79.45h2.174v-3.16h1.555v3.16h4.3l.013 1.423z"/><use xlink:href="#T"/></g><path d="M94 356.519h-5.152V369h-1.696v-12.481H82V355h12z"/></g><mask id="n" class="C"><use xlink:href="#E" href="#A"/></mask><g class="B F"><g mask="url(#n)"><path d="M100.98 359.268l-.38 1.554c-.535-.267-1.126-.404-1.723-.4a2.76 2.76 0 0 0-2.665 3.109v5.569h-1.566v-9.953h1.555v1.399a3.48 3.48 0 0 1 2.954-1.597 4.27 4.27 0 0 1 1.83.335m11.372 9.802h-1.555v-1.481c-.873 1.112-2.226 1.737-3.638 1.681a5.18 5.18 0 0 1 0-10.353 4.43 4.43 0 0 1 3.638 1.681v-1.483h1.555v9.955zm-8.577-4.983c.08 1.941 1.705 3.458 3.647 3.405s3.482-1.656 3.456-3.599-1.607-3.505-3.55-3.506c-.968-.001-1.895.394-2.566 1.092a3.55 3.55 0 0 0-.987 2.608"/><use xlink:href="#U"/><use xlink:href="#V"/><use xlink:href="#W"/><path d="M160.181 360.498l-1.008 1.061a3.8 3.8 0 0 0-2.723-1.157 3.71 3.71 0 0 0 0 7.41 3.98 3.98 0 0 0 2.754-1.168l.977 1.073c-.945 1.032-2.29 1.603-3.689 1.566a5.18 5.18 0 0 1-5.177-5.176 5.18 5.18 0 0 1 5.177-5.176 4.81 4.81 0 0 1 3.689 1.554m9.57.066h-4.3v5.023c0 1.554.819 2.238 1.977 2.238a3.62 3.62 0 0 0 2.09-.704l.735 1.188a4.81 4.81 0 0 1-2.954.988c-2.145 0-3.416-1.179-3.416-3.678v-5.056h-2.174v-1.419h2.174v-3.164h1.555v3.164h4.3l.013 1.419zm4.662-4.949a1.09 1.09 0 0 1-1.11 1.11 1.111 1.111 0 1 1 1.11-1.111m-.326 13.484h-1.577v-9.953h1.577v9.953zm13.397-4.983a5.24 5.24 0 1 1-5.246-5.17c1.39-.041 2.737.488 3.727 1.464s1.539 2.315 1.518 3.705m-8.883 0a3.64 3.64 0 0 0 3.679 3.575 3.64 3.64 0 0 0 3.596-3.659 3.64 3.64 0 0 0-3.639-3.616 3.57 3.57 0 0 0-3.636 3.7"/><use xlink:href="#U" x="74.367"/><path d="M209.695 361.244a6.22 6.22 0 0 0-3.258-.935c-1.419 0-2.354.597-2.354 1.554 0 .831.724 1.241 2.028 1.397l1.177.147c2.114.275 3.345 1.146 3.345 2.774 0 1.892-1.703 3.08-4.384 3.08a6.99 6.99 0 0 1-4.151-1.272l.726-1.177a5.24 5.24 0 0 0 3.447 1.081c1.681 0 2.743-.555 2.743-1.608 0-.799-.666-1.281-2.081-1.45l-1.188-.135c-2.239-.273-3.289-1.27-3.289-2.754 0-1.883 1.588-3.018 3.973-3.018a7.28 7.28 0 0 1 3.953 1.084l-.686 1.232zM91.923 290.871c-1.305-.901-2.855-1.382-4.442-1.377-2.221 0-3.804.997-3.804 2.665 0 1.366 1.11 2.114 3.393 2.387l1.397.169c2.43.293 4.595 1.332 4.595 3.868 0 2.911-2.649 4.426-5.823 4.426a9.65 9.65 0 0 1-5.774-1.892l.926-1.346c1.395 1.058 3.096 1.633 4.846 1.639 2.281 0 4.08-.924 4.08-2.68 0-1.43-1.23-2.145-3.553-2.407l-1.481-.169c-2.512-.284-4.342-1.45-4.342-3.888 0-2.796 2.492-4.364 5.572-4.364a8.93 8.93 0 0 1 5.286 1.608l-.875 1.361z"/><use xlink:href="#X"/><path d="M116.99 294.213l-1.01 1.061c-.714-.738-1.696-1.155-2.723-1.157a3.71 3.71 0 0 0 0 7.41 4 4 0 0 0 2.756-1.168l.977 1.073a4.83 4.83 0 0 1-3.691 1.566 5.18 5.18 0 0 1-5.177-5.176 5.18 5.18 0 0 1 5.177-5.176c1.398-.042 2.745.525 3.691 1.554"/><use xlink:href="#Y"/><use xlink:href="#W" x="-14.084" y="-66.285"/><path d="M138.002 287.664h1.577v15.136h-1.577z"/><use xlink:href="#Z"/><path d="M175.099 302.801h-1.555v-1.481c-.873 1.112-2.226 1.737-3.638 1.681a5.18 5.18 0 0 1 0-10.353 4.43 4.43 0 0 1 3.638 1.681v-1.483h1.555v9.955zm-8.577-4.979c.08 1.941 1.705 3.458 3.647 3.405s3.482-1.656 3.456-3.599-1.607-3.505-3.55-3.506c-.968-.001-1.895.394-2.566 1.092a3.55 3.55 0 0 0-.987 2.608m19.006-3.556h-4.3v5.012c0 1.554.819 2.238 1.977 2.238a3.62 3.62 0 0 0 2.09-.704l.735 1.188a4.81 4.81 0 0 1-2.954.988c-2.145 0-3.416-1.179-3.416-3.678v-5.056h-2.174v-1.417h2.174v-3.164h1.555v3.164h4.3l.013 1.428z"/><use xlink:href="#a"/><path d="M90.984 218.344c-1.305-.901-2.855-1.382-4.442-1.377-2.221 0-3.804.997-3.804 2.665 0 1.366 1.11 2.114 3.396 2.387l1.397.169c2.427.293 4.595 1.332 4.595 3.868 0 2.911-2.649 4.426-5.823 4.426a9.65 9.65 0 0 1-5.774-1.892l.926-1.346c1.395 1.058 3.096 1.633 4.846 1.639 2.281 0 4.08-.924 4.08-2.68 0-1.43-1.23-2.145-3.553-2.407l-1.481-.169c-2.512-.284-4.342-1.45-4.342-3.888 0-2.796 2.49-4.364 5.57-4.364a8.93 8.93 0 0 1 5.288 1.608l-.877 1.361zm13.214 6.924c.001.197-.009.393-.031.588h-7.98a3.38 3.38 0 0 0 1.087 2.355 3.39 3.39 0 0 0 2.435.894c1.172-.002 2.298-.449 3.151-1.252l.842 1.073c-1.095 1.052-2.571 1.614-4.089 1.554a5.18 5.18 0 0 1-.093-10.353c1.317.017 2.568.579 3.455 1.553a4.75 4.75 0 0 1 1.222 3.585m-7.995-.684h6.392a3.11 3.11 0 0 0-3.109-3.058c-1.735-.022-3.181 1.325-3.28 3.058m19.968-.477v6.169h-1.555v-5.656c.098-.799-.167-1.6-.723-2.182s-1.343-.885-2.146-.824a2.93 2.93 0 0 0-3.049 3.049v5.614h-1.577v-9.955h1.555v1.419c.776-1.068 2.035-1.676 3.353-1.619 1.096-.086 2.176.301 2.969 1.062a3.85 3.85 0 0 1 1.182 2.922m10.231-1.671a6.22 6.22 0 0 0-3.258-.935c-1.419 0-2.354.597-2.354 1.554 0 .831.724 1.241 2.028 1.397l1.177.147c2.114.275 3.345 1.146 3.345 2.774 0 1.892-1.703 3.08-4.384 3.08a6.99 6.99 0 0 1-4.151-1.272l.726-1.177a5.24 5.24 0 0 0 3.447 1.081c1.681 0 2.743-.557 2.743-1.608 0-.799-.666-1.281-2.081-1.45l-1.188-.135c-2.239-.273-3.289-1.27-3.289-2.754 0-1.883 1.588-3.018 3.973-3.018a7.28 7.28 0 0 1 3.953 1.084l-.686 1.232zm13.407 2.856a5.24 5.24 0 1 1-5.246-5.17c1.39-.041 2.737.488 3.727 1.464a5.1 5.1 0 0 1 1.519 3.705m-8.883 0a3.64 3.64 0 0 0 3.679 3.575 3.64 3.64 0 0 0 3.596-3.659 3.64 3.64 0 0 0-3.639-3.616 3.57 3.57 0 0 0-3.636 3.7m18.133-4.834l-.38 1.554a3.8 3.8 0 0 0-1.723-.4 2.76 2.76 0 0 0-2.665 3.109v5.569h-1.566v-9.953h1.555v1.399a3.48 3.48 0 0 1 2.954-1.597 4.27 4.27 0 0 1 1.83.335m13.565-4.912c2.743-.178 5.357 1.184 6.783 3.533a7.37 7.37 0 0 1 0 7.647c-1.426 2.35-4.04 3.712-6.783 3.533h-5.539v-14.714h5.539zm-3.847 1.597v11.516h3.847c2.155.153 4.215-.91 5.339-2.755s1.124-4.163 0-6.008-3.184-2.908-5.339-2.755l-3.847.002z"/><use xlink:href="#a" x="-14.62" y="-72.53"/><path d="M193.481 221.737h-4.3v5.023c0 1.554.819 2.238 1.977 2.238a3.61 3.61 0 0 0 2.09-.706l.735 1.188c-.848.648-1.887.996-2.954.988-2.145 0-3.416-1.179-3.416-3.678v-5.056h-2.174v-1.419h2.174v-3.162h1.555v3.164h4.3l.013 1.419z"/><use xlink:href="#a" x="7.952" y="-72.53"/></g><path d="M95 160H85v-14h1.657v12.481H95z"/></g><mask id="o" class="C"><use xlink:href="#F" href="#A"/></mask><g mask="url(#o)"><g transform="translate(32.862 23.195)"><g class="B F"><path d="M73.706 132.885a5.24 5.24 0 1 1-5.246-5.172 5.11 5.11 0 0 1 3.725 1.469c.99.976 1.539 2.313 1.521 3.703m-8.883 0a3.64 3.64 0 0 0 3.679 3.575 3.64 3.64 0 0 0 3.596-3.658 3.64 3.64 0 0 0-3.637-3.617 3.57 3.57 0 0 0-3.638 3.7m19.518-3.479v-1.492h1.577v9.269a4.8 4.8 0 0 1-5.268 5.045 6.78 6.78 0 0 1-4.193-1.332l.695-1.261c1.008.76 2.237 1.17 3.5 1.166.982.101 1.959-.235 2.67-.92s1.085-1.648 1.021-2.633v-1.019c-.829 1.121-2.161 1.755-3.553 1.692a5.11 5.11 0 0 1-5.108-5.108 5.11 5.11 0 0 1 5.108-5.108 4.22 4.22 0 0 1 3.553 1.692m-6.885 3.404c.062 1.925 1.662 3.441 3.587 3.399s3.458-1.625 3.438-3.55-1.588-3.475-3.514-3.475a3.46 3.46 0 0 0-3.511 3.626"/><use xlink:href="#T" x="-54.935" y="48.46"/><use xlink:href="#R" x="725.948" y="-25.142"/><path d="M777.507 6.764h-3.376v3.409c0 1.166.615 1.588 1.395 1.588a3.64 3.64 0 0 0 1.75-.606l.924 1.963a5.2 5.2 0 0 1-3.089.982c-2.307 0-3.493-1.308-3.493-3.722V6.764h-1.799V4.53h1.799V1.761h2.512V4.53h3.378v2.234zm11.284 7.089h-2.443v-1.03a3.42 3.42 0 0 1-2.789 1.27c-2.554-.211-4.519-2.344-4.519-4.907s1.965-4.696 4.519-4.907c1.08-.039 2.114.435 2.789 1.279V4.53h2.443v9.322zm-7.187-4.663a2.41 2.41 0 0 0 4.813-.213 2.41 2.41 0 0 0-2.408-2.357 2.4 2.4 0 0 0-2.405 2.569m16.597-2.425h-3.382v3.409c0 1.166.615 1.588 1.395 1.588a3.64 3.64 0 0 0 1.75-.606l.924 1.963a5.2 5.2 0 0 1-3.089.982c-2.307 0-3.493-1.308-3.493-3.722V6.764h-1.799V4.53h1.799V1.761h2.514V4.53h3.378l.004 2.234z"/><use xlink:href="#b"/><path d="M811.03 0h2.512v13.853h-2.512z"/><use xlink:href="#b" x="15.879"/><path d="M833.528 7.128a7.5 7.5 0 0 0-2.974-.759c-.953 0-1.435.335-1.435.846s.666.666 1.521.799l.826.127c2.021.309 3.145 1.21 3.145 2.789 0 1.923-1.577 3.164-4.28 3.164a7.43 7.43 0 0 1-4.146-1.097l.991-1.905a5.45 5.45 0 0 0 3.176.915c1.164 0 1.721-.329 1.721-.877 0-.444-.471-.702-1.555-.855l-.76-.107c-2.156-.298-3.222-1.241-3.222-2.829 0-1.914 1.481-3.051 3.935-3.051a8.36 8.36 0 0 1 3.895.888l-.839 1.952zm9.696 0a7.5 7.5 0 0 0-2.974-.759c-.953 0-1.435.335-1.435.846s.666.666 1.521.799l.828.127c2.021.309 3.145 1.21 3.145 2.789 0 1.923-1.579 3.164-4.28 3.164a7.43 7.43 0 0 1-4.146-1.097l.991-1.905a5.45 5.45 0 0 0 3.176.915c1.164 0 1.721-.329 1.721-.877 0-.444-.471-.702-1.555-.855l-.76-.107c-2.156-.298-3.222-1.241-3.222-2.829 0-1.914 1.481-3.051 3.935-3.051a8.36 8.36 0 0 1 3.895.888l-.842 1.952zM822.055 64.46h-1.819l-1.672-4.099h-7.284l-1.661 4.099h-1.754l6.043-14.714H816l6.056 14.714zm-10.112-5.696h5.996l-3-7.353-2.996 7.353zm22.491.717c.059 1.354-.437 2.674-1.375 3.653s-2.235 1.532-3.591 1.53c-1.407.056-2.755-.565-3.627-1.67v5.667h-1.577V54.509h1.577v1.472a4.4 4.4 0 0 1 3.627-1.672c1.355-.003 2.652.548 3.59 1.524s1.437 2.294 1.38 3.648m-8.701 0c.08 1.941 1.705 3.458 3.647 3.405s3.482-1.656 3.456-3.599-1.607-3.505-3.55-3.506c-.972-.012-1.905.379-2.578 1.08s-1.026 1.649-.975 2.62m21.787 0c.059 1.355-.439 2.674-1.378 3.653s-2.237 1.531-3.593 1.528c-1.407.056-2.755-.565-3.627-1.67v5.669h-1.577V54.509h1.577v1.472c.871-1.106 2.22-1.728 3.627-1.672 1.355-.003 2.652.548 3.59 1.524s1.437 2.294 1.38 3.648m-8.701 0c.08 1.941 1.705 3.458 3.647 3.405s3.482-1.656 3.456-3.599-1.607-3.505-3.55-3.506c-.972-.012-1.905.379-2.578 1.08s-1.026 1.649-.975 2.62m11.615-10.155h1.577v15.136h-1.577z"/><use xlink:href="#Y" x="736.026" y="-238.336"/><path d="M869.026 55.874l-1.01 1.061c-.714-.738-1.696-1.155-2.723-1.157a3.71 3.71 0 0 0 0 7.41 4 4 0 0 0 2.756-1.168l.977 1.073a4.83 4.83 0 0 1-3.691 1.554 5.18 5.18 0 0 1-5.177-5.176 5.18 5.18 0 0 1 5.177-5.176c1.399-.04 2.747.532 3.691 1.566"/><use xlink:href="#c"/><path d="M891.366 55.928h-4.3v5.023c0 1.554.822 2.238 1.977 2.238.753-.011 1.484-.257 2.09-.704l.735 1.188c-.847.648-1.887.996-2.954.988-2.143 0-3.416-1.177-3.416-3.678v-5.056h-2.174v-1.419h2.174v-3.164h1.555v3.164h4.3l.013 1.419z"/><use xlink:href="#Y" x="774.46" y="-238.336"/><path d="M909.101 59.481a5.24 5.24 0 1 1-5.246-5.172 5.1 5.1 0 0 1 3.728 1.465c.991.976 1.539 2.316 1.518 3.707m-8.883 0a3.64 3.64 0 0 0 3.676 3.575 3.64 3.64 0 0 0 3.599-3.652 3.64 3.64 0 0 0-3.628-3.623 3.57 3.57 0 0 0-3.636 3.7m20.845-1.188v6.169h-1.555v-5.656c.098-.799-.167-1.6-.723-2.182s-1.343-.885-2.146-.824a2.93 2.93 0 0 0-3.049 3.049v5.614h-1.579V54.51h1.555v1.419a3.94 3.94 0 0 1 3.353-1.619c1.096-.086 2.176.301 2.969 1.062a3.85 3.85 0 0 1 1.182 2.922m10.231-1.673a6.22 6.22 0 0 0-3.258-.935c-1.419 0-2.354.597-2.354 1.554 0 .831.724 1.241 2.028 1.399l1.177.147c2.114.273 3.342 1.146 3.342 2.776 0 1.892-1.703 3.08-4.384 3.08-1.484.028-2.937-.418-4.151-1.272l.726-1.177c.984.759 2.206 1.143 3.447 1.084 1.681 0 2.743-.557 2.743-1.608 0-.799-.666-1.281-2.081-1.45l-1.188-.138c-2.239-.273-3.289-1.27-3.289-2.754 0-1.883 1.588-3.018 3.973-3.018a7.28 7.28 0 0 1 3.953 1.084l-.684 1.228zM801.881 175.136h-1.692v-12.822l-5.13 11.194h-1.777l-5.108-11.103v12.731h-1.692v-14.714h2.565l5.141 11.119 5.128-11.119h2.576z"/><use xlink:href="#c" x="-65.686" y="110.663"/><path d="M827.003 166.538l-1.01 1.061a3.8 3.8 0 0 0-2.723-1.157 3.71 3.71 0 0 0 0 7.41 4 4 0 0 0 2.756-1.168l.977 1.073a4.83 4.83 0 0 1-3.691 1.554 5.18 5.18 0 0 1-5.177-5.176 5.18 5.18 0 0 1 5.177-5.176c1.399-.039 2.747.532 3.691 1.566m4.257.035a3.97 3.97 0 0 1 3.331-1.588c1.096-.086 2.176.301 2.969 1.062a3.85 3.85 0 0 1 1.182 2.922v6.169h-1.555v-5.654c.098-.799-.167-1.6-.723-2.182s-1.343-.885-2.146-.824a2.93 2.93 0 0 0-3.049 3.049v5.612h-1.577v-15.138h1.577l-.009 6.573z"/><use xlink:href="#Y" x="722.628" y="-127.673"/><path d="M856.605 168.956v6.169h-1.555v-5.654c.098-.799-.167-1.6-.723-2.182s-1.343-.885-2.146-.824a2.93 2.93 0 0 0-3.049 3.049v5.612h-1.577v-9.953h1.555v1.419c.776-1.068 2.035-1.676 3.353-1.619 1.096-.086 2.176.301 2.969 1.062a3.85 3.85 0 0 1 1.182 2.922m12.414 1.154a5.08 5.08 0 0 1-.031.588h-7.977a3.38 3.38 0 0 0 1.087 2.355 3.39 3.39 0 0 0 2.435.894c1.172-.002 2.298-.449 3.151-1.252l.842 1.073c-1.094 1.053-2.571 1.615-4.089 1.554a5.18 5.18 0 0 1-.093-10.353c1.317.017 2.568.579 3.455 1.553a4.75 4.75 0 0 1 1.222 3.585m-7.995-.684h6.392a3.11 3.11 0 0 0-3.109-3.058c-1.735-.022-3.181 1.325-3.28 3.058m26.994 5.712h-10.216v-14.714h1.692v13.118h8.515zm11.091-5.025c.001.197-.009.393-.031.588h-7.977a3.38 3.38 0 0 0 1.087 2.355 3.39 3.39 0 0 0 2.435.894c1.172-.002 2.298-.449 3.151-1.252l.842 1.073c-1.094 1.053-2.571 1.615-4.089 1.554a5.18 5.18 0 0 1-.093-10.353c1.317.017 2.568.579 3.455 1.553a4.75 4.75 0 0 1 1.222 3.585m-7.995-.684h6.392a3.11 3.11 0 0 0-3.109-3.058c-1.735-.022-3.181 1.325-3.28 3.058"/><use xlink:href="#c" x="30.508" y="110.663"/><path d="M921.454 165.307l-.38 1.554c-.535-.267-1.126-.404-1.723-.4a2.76 2.76 0 0 0-2.665 3.109v5.572h-1.566v-9.953h1.555v1.399a3.48 3.48 0 0 1 2.954-1.599 4.28 4.28 0 0 1 1.83.335m11.434 3.632v6.169h-1.555v-5.654c.098-.799-.167-1.6-.723-2.182s-1.343-.885-2.146-.824a2.93 2.93 0 0 0-3.049 3.049v5.612h-1.577v-9.953h1.555v1.419a3.94 3.94 0 0 1 3.353-1.619c1.096-.086 2.176.301 2.969 1.062a3.85 3.85 0 0 1 1.182 2.922"/><use xlink:href="#Y" x="816.785" y="-127.673"/><path d="M950.762 168.956v6.169h-1.555v-5.654c.098-.799-.167-1.6-.723-2.182s-1.343-.885-2.146-.824a2.93 2.93 0 0 0-3.056 3.047v5.612h-1.577v-9.953h1.555v1.419a3.94 3.94 0 0 1 3.353-1.619c1.096-.086 2.176.301 2.969 1.062a3.85 3.85 0 0 1 1.182 2.922m11.278-2.291v-1.492h1.577v9.269a4.8 4.8 0 0 1-5.268 5.045 6.77 6.77 0 0 1-4.193-1.332l.693-1.259a5.79 5.79 0 0 0 3.5 1.166c.982.101 1.959-.235 2.67-.92s1.085-1.648 1.021-2.633v-1.019a4.19 4.19 0 0 1-3.553 1.692 5.11 5.11 0 0 1-5.108-5.108 5.11 5.11 0 0 1 5.108-5.108 4.22 4.22 0 0 1 3.553 1.692m-6.885 3.404c.062 1.925 1.662 3.441 3.588 3.399s3.458-1.626 3.437-3.552-1.59-3.475-3.516-3.474a3.46 3.46 0 0 0-3.509 3.626"/><use xlink:href="#Z" x="640.873" y="-22.32"/><use xlink:href="#a" x="618.298" y="-22.334"/><path d="M826.401 271.944h-4.3v5.023c0 1.554.819 2.238 1.977 2.238a3.62 3.62 0 0 0 2.09-.704l.735 1.188c-.848.648-1.887.995-2.954.988-2.145 0-3.416-1.179-3.416-3.678v-5.056h-2.172v-1.419h2.174v-3.164h1.555v3.164h4.3l.011 1.419z"/><use xlink:href="#W" x="690.13" y="-88.619"/><path d="M849.802 274.56v5.918h-1.683v-14.714h5.552c3.3 0 5.203 1.65 5.203 4.404s-1.901 4.395-5.203 4.395l-3.869-.002zm0-7.199v5.612h3.815c2.27 0 3.5-.935 3.5-2.807s-1.23-2.805-3.5-2.805h-3.815zm18.311 3.3l-.38 1.554c-.535-.267-1.126-.404-1.723-.4a2.76 2.76 0 0 0-2.665 3.109v5.543h-1.566v-9.953h1.555v1.399a3.48 3.48 0 0 1 2.954-1.597 4.27 4.27 0 0 1 1.83.335"/><use xlink:href="#X" x="773.802" y="-22.329"/><path d="M890.793 271.891l-1.01 1.061a3.8 3.8 0 0 0-2.723-1.157 3.71 3.71 0 0 0 0 7.41 4 4 0 0 0 2.756-1.168l.977 1.073a4.83 4.83 0 0 1-3.689 1.566 5.18 5.18 0 0 1-5.177-5.176 5.18 5.18 0 0 1 5.177-5.176 4.82 4.82 0 0 1 3.689 1.554m11.357 3.584c.001.197-.009.393-.031.588h-7.977c.036.898.427 1.745 1.088 2.354s1.537.93 2.434.893c1.171-.001 2.298-.448 3.151-1.25l.842 1.073a5.58 5.58 0 0 1-4.089 1.554 5.18 5.18 0 0 1-.093-10.353c1.317.017 2.568.579 3.455 1.553a4.75 4.75 0 0 1 1.222 3.585m-7.995-.684h6.392a3.11 3.11 0 0 0-3.109-3.058c-1.735-.022-3.181 1.325-3.28 3.058m17.586-2.138a6.22 6.22 0 0 0-3.258-.935c-1.419 0-2.354.597-2.354 1.554 0 .831.724 1.241 2.028 1.397l1.177.147c2.114.275 3.342 1.146 3.342 2.774 0 1.892-1.703 3.08-4.384 3.08a6.99 6.99 0 0 1-4.151-1.272l.726-1.177a5.24 5.24 0 0 0 3.447 1.081c1.681 0 2.743-.555 2.743-1.608 0-.799-.666-1.281-2.081-1.45l-1.188-.135c-2.239-.273-3.289-1.27-3.289-2.754 0-1.883 1.588-3.018 3.973-3.018a7.28 7.28 0 0 1 3.953 1.084l-.684 1.232z"/><use xlink:href="#V" x="786.786" y="-88.607"/><use xlink:href="#Y" x="806.134" y="-22.32"/><path d="M940.111 274.309v6.158h-1.555v-5.656c.098-.799-.167-1.6-.723-2.182s-1.343-.885-2.146-.824a2.93 2.93 0 0 0-3.049 3.049v5.614h-1.577v-9.955h1.555v1.419a3.94 3.94 0 0 1 3.353-1.619c1.096-.086 2.176.301 2.969 1.062a3.85 3.85 0 0 1 1.182 2.922m11.271-2.282v-1.492h1.577v9.278a4.8 4.8 0 0 1-5.268 5.045 6.77 6.77 0 0 1-4.193-1.332l.693-1.261c1.008.761 2.237 1.17 3.5 1.166.982.101 1.959-.235 2.67-.92s1.085-1.648 1.021-2.633v-1.019a4.19 4.19 0 0 1-3.553 1.692 5.11 5.11 0 0 1-5.108-5.108 5.11 5.11 0 0 1 5.108-5.108 4.22 4.22 0 0 1 3.553 1.692m-6.885 3.407c.062 1.925 1.662 3.441 3.588 3.399s3.458-1.626 3.437-3.552-1.59-3.475-3.516-3.474a3.46 3.46 0 0 0-3.509 3.626"/></g><g class="I B"><path d="M15.941 270.772c-3.867 0-7.002-3.135-7.002-7.002s3.135-7.002 7.002-7.002 7.002 3.135 7.002 7.002c-.012 3.862-3.14 6.99-7.002 7.002m0-12.605c-3.095 0-5.603 2.508-5.603 5.603s2.509 5.603 5.603 5.603 5.603-2.508 5.603-5.603a5.53 5.53 0 0 0-5.603-5.603m10.33 26.959H5.617v-6.662a6.65 6.65 0 0 1 6.663-6.662h7.178a6.65 6.65 0 0 1 6.663 6.662v6.662h.151zM7.013 283.9h18.033v-5.252c-.015-2.991-2.436-5.413-5.428-5.427h-7.176c-2.992.015-5.413 2.436-5.428 5.427v5.252"/></g><g class="D"><path d="M754.037 170.115H574.238m201.507-85.254v52.868"/></g><g class="B"><g class="K"><path d="M770.144 133.003l5.603 5.603 5.428-5.603zM579.841 240.662l-5.603 5.427 5.603 5.603zm0-36.588l-5.603 5.603 5.603 5.427zm0-39.562l-5.603 5.603 5.603 5.603zm0-38.862l-5.603 5.603 5.603 5.427zm-224.924 14.355l5.603-5.603-5.603-5.416zm0 54.351l5.603-5.603-5.603-5.427zm0 49.212l5.603-5.603-5.603-5.427z"/></g><use xlink:href="#d" class="E"/></g><use xlink:href="#d" class="D H"/><g class="B F"><path d="M769.651 106.897a4.96 4.96 0 0 0-2.614-.784c-1.035 0-1.763.409-1.763 1.11s.797.888 1.901 1.066l.52.087c1.646.269 2.936.973 2.936 2.578 0 2.034-1.79 3.002-3.775 3.002a6.41 6.41 0 0 1-3.882-1.206l.955-1.481a4.86 4.86 0 0 0 2.936.993c1.022 0 1.81-.402 1.81-1.11 0-.64-.666-.875-1.957-1.079l-.584-.093c-1.626-.255-2.809-.973-2.809-2.64 0-1.921 1.71-2.92 3.673-2.92a6.48 6.48 0 0 1 3.52.979l-.866 1.499zm11.853 2.285c.014 1.029-.312 2.034-.928 2.858l1.297 1.75h-2.159l-.429-.566a4.84 4.84 0 0 1-2.625.737 4.78 4.78 0 0 1-4.715-4.821 4.78 4.78 0 0 1 4.8-4.736 4.78 4.78 0 0 1 4.758 4.778m-7.773 0a2.85 2.85 0 0 0 2.923 3.016 3.01 3.01 0 0 0 1.555-.409l-1.679-2.238h2.199l.633.855a3.48 3.48 0 0 0 .222-1.224c.042-1.071-.506-2.079-1.427-2.628a2.92 2.92 0 0 0-2.99 0c-.921.548-1.469 1.556-1.427 2.628m16.204 4.608h-6.714v-9.216h1.834v7.497h4.87z"/></g><path d="M776.19 192.002v52.868" class="D"/><g class="B"><path d="M770.586 240.142l5.603 5.603 5.428-5.603z" class="K"/><use xlink:href="#d" x="0.447" y="107.141" class="E"/></g><use xlink:href="#d" x="0.447" y="107.141" class="D H"/><g class="B F"><use xlink:href="#e"/><path d="M781.948 216.323c.014 1.028-.312 2.032-.928 2.856l1.297 1.75h-2.159l-.429-.566a4.82 4.82 0 0 1-2.625.737 4.78 4.78 0 0 1-4.715-4.821 4.78 4.78 0 0 1 4.8-4.736 4.78 4.78 0 0 1 4.758 4.778m-7.773 0a2.85 2.85 0 0 0 2.923 3.013 2.99 2.99 0 0 0 1.555-.409l-1.679-2.238h2.199l.633.855a3.48 3.48 0 0 0 .222-1.224c.042-1.071-.506-2.079-1.427-2.628a2.92 2.92 0 0 0-2.99 0c-.921.548-1.469 1.556-1.427 2.628m16.205 4.613h-6.707v-9.216h1.834v7.497h4.87z"/></g><path d="M447.334 178.045h6.303v20.481h-6.303v-20.481zm-7.529.193l-12.954 8.696a.31.31 0 0 1-.524 0l-12.956-8.696c-.351-.193-.526-.386-.875-.386a2 2 0 0 0-1.75 1.932v18.743h6.303v-8.883c0-.58.526-.966.875-.58l7.178 5.023c.71.386 1.567.386 2.276 0l7.526-5.023c.351-.386.875 0 .875.58v8.883h6.303v-18.743a2 2 0 0 0-1.75-1.932c-.191.106-.367.236-.524.386m45.528-.193h-6.312v9.467c0 .58-.526.966-.875.58l-16.632-9.662c-.351-.193-.524-.386-.875-.386a2 2 0 0 0-1.75 1.932v18.549h6.303v-9.274c0-.58.526-.966.875-.58l16.63 9.662c.351.193.524.386.875.386a2 2 0 0 0 1.75-1.932l.011-18.743zm5.252 0h2.976v20.481h-2.976v-20.481zm19.959 20.874c-7.877 0-13.481-4.059-13.481-10.821 0-6.569 5.603-10.821 13.481-10.821s13.481 4.057 13.481 10.821-5.603 10.821-13.481 10.821m0-18.549c-5.774 0-10.329 2.898-10.329 7.923 0 5.216 4.553 7.921 10.329 7.921s10.329-2.898 10.329-7.921-4.553-7.923-10.329-7.923" class="B K"/><g class="D"><path stroke-width="2.5" d="M361.9 129.799h210.959v116.588H361.9z"/><path d="M754.738 249.415h-68.453v-39.737H572.488m182.25 65.644h-85.785v-29.584h-96.465m1.752-114.485h117.297V63.156h62.326"/></g><use xlink:href="#d" x="-140.929" y="136.896" class="B E"/><use xlink:href="#d" x="-140.929" y="136.896" class="D H"/><use xlink:href="#f" class="B E"/><use xlink:href="#f" class="D H"/><g class="B F"><use xlink:href="#e" x="-164.03" y="-7.899"/><path d="M614.429 206.299a2.22 2.22 0 0 1-1.375 2.092c.929.288 1.566 1.142 1.579 2.114 0 1.817-1.652 2.691-3.396 2.691a4.07 4.07 0 0 1-3.22-1.332l1.062-1.164a2.91 2.91 0 0 0 2.092.888c.888 0 1.615-.389 1.615-1.197s-.811-1.204-1.806-1.204h-1.073v-1.581h1.079c.888 0 1.612-.395 1.612-1.173s-.666-1.15-1.526-1.15a2.32 2.32 0 0 0-1.863.933l-1.11-1.124a3.65 3.65 0 0 1 3.074-1.43c1.943 0 3.265 1.053 3.265 2.647m11.34-.168a4.95 4.95 0 0 0-2.614-.784c-1.035 0-1.763.409-1.763 1.11s.797.888 1.903 1.066l.52.087c1.646.271 2.936.975 2.936 2.58 0 2.034-1.79 3-3.775 3a6.4 6.4 0 0 1-3.884-1.206l.955-1.481c.844.642 1.875.991 2.936.993 1.022 0 1.81-.4 1.81-1.11 0-.64-.666-.877-1.957-1.079l-.584-.093c-1.626-.255-2.809-.973-2.809-2.638 0-1.923 1.71-2.922 3.673-2.922 1.243-.017 2.465.324 3.52.982l-.866 1.497zm9.549 6.889h-6.885v-9.225h6.829v1.685h-4.997v2.041h4.775v1.685h-4.766v2.119h5.048zm8.602 0h-6.703v-9.225h1.834v7.497h4.87zm8.152 0h-6.885v-9.225h6.831v1.685h-4.997v2.041h4.766v1.685h-4.766v2.119h5.048zm10.181-7.318l-1.581.968a2.75 2.75 0 0 0-2.383-1.27c-1.633.044-2.934 1.381-2.934 3.015s1.301 2.97 2.934 3.015a2.82 2.82 0 0 0 2.403-1.264l1.499 1.081c-1.326 1.855-3.772 2.525-5.858 1.605s-3.24-3.179-2.764-5.408 2.453-3.819 4.733-3.806a4.48 4.48 0 0 1 3.949 2.067m8.454-.18h-2.856v7.497h-1.837v-7.497h-2.858v-1.73h7.551z"/></g><use xlink:href="#f" y="-37.989" class="B E"/><use xlink:href="#f" y="-37.989" class="D H"/><g class="B F"><path d="M606.059 168.192a4.96 4.96 0 0 0-2.614-.784c-1.035 0-1.766.409-1.766 1.11s.797.888 1.903 1.066l.52.087c1.646.269 2.936.973 2.936 2.578 0 2.034-1.79 3.002-3.775 3.002a6.41 6.41 0 0 1-3.884-1.206l.955-1.481c.844.642 1.875.991 2.936.993 1.022 0 1.81-.402 1.81-1.11 0-.637-.666-.875-1.957-1.079l-.584-.093c-1.626-.255-2.809-.973-2.809-2.64 0-1.921 1.71-2.922 3.673-2.922a6.48 6.48 0 0 1 3.52.982l-.864 1.499zm8.37.158a2.22 2.22 0 0 1-1.375 2.092c.929.288 1.566 1.142 1.579 2.114 0 1.817-1.652 2.691-3.396 2.691a4.08 4.08 0 0 1-3.22-1.332l1.062-1.166a2.91 2.91 0 0 0 2.092.888c.888 0 1.615-.389 1.615-1.197s-.811-1.204-1.806-1.204h-1.073v-1.581h1.079c.888 0 1.612-.395 1.612-1.173s-.666-1.15-1.526-1.15a2.32 2.32 0 0 0-1.863.933l-1.11-1.126c.727-.953 1.876-1.488 3.074-1.43 1.943 0 3.265 1.055 3.265 2.647m11.34-.164a4.96 4.96 0 0 0-2.614-.784c-1.035 0-1.763.409-1.763 1.11s.797.888 1.903 1.066l.52.087c1.646.269 2.936.973 2.936 2.578 0 2.034-1.79 3.002-3.775 3.002a6.41 6.41 0 0 1-3.884-1.206l.955-1.481c.844.642 1.875.991 2.936.993 1.022 0 1.81-.402 1.81-1.11 0-.637-.666-.875-1.957-1.079l-.584-.093c-1.626-.255-2.809-.973-2.809-2.64 0-1.921 1.71-2.922 3.673-2.922a6.48 6.48 0 0 1 3.52.982l-.866 1.499zm9.549 6.891h-6.885v-9.216h6.829v1.692h-4.997v2.041h4.775v1.685h-4.766v2.119h5.048zm8.602 0h-6.703v-9.216h1.834v7.497h4.87zm8.152 0h-6.885v-9.216h6.831v1.692h-4.997v2.041h4.766v1.685h-4.766v2.119h5.048z"/><use xlink:href="#g"/><use xlink:href="#h"/></g><use xlink:href="#f" y="-76.5" class="B E"/><use xlink:href="#f" y="-76.5" class="D H"/><g class="B F"><path d="M606.059 129.688a4.96 4.96 0 0 0-2.614-.784c-1.035 0-1.766.409-1.766 1.11s.797.888 1.903 1.066l.52.087c1.646.269 2.936.973 2.936 2.578 0 2.034-1.79 3.002-3.775 3.002a6.41 6.41 0 0 1-3.884-1.206l.955-1.481c.844.642 1.875.991 2.936.993 1.022 0 1.81-.402 1.81-1.11 0-.64-.666-.875-1.957-1.079l-.584-.093c-1.626-.255-2.809-.973-2.809-2.64 0-1.921 1.71-2.922 3.673-2.922a6.48 6.48 0 0 1 3.52.982l-.864 1.499zm8.37.157a2.22 2.22 0 0 1-1.375 2.092c.929.288 1.566 1.142 1.579 2.114 0 1.817-1.652 2.691-3.396 2.691a4.08 4.08 0 0 1-3.22-1.332l1.062-1.166a2.91 2.91 0 0 0 2.092.888c.888 0 1.615-.389 1.615-1.197s-.811-1.204-1.806-1.204h-1.073v-1.581h1.079c.888 0 1.612-.395 1.612-1.173s-.666-1.15-1.526-1.15a2.32 2.32 0 0 0-1.863.933l-1.11-1.124c.727-.953 1.876-1.488 3.074-1.43 1.943 0 3.265 1.055 3.265 2.647m11.34-.165a4.96 4.96 0 0 0-2.614-.784c-1.035 0-1.763.409-1.763 1.11s.797.888 1.903 1.066l.52.087c1.646.269 2.936.973 2.936 2.578 0 2.034-1.79 3.002-3.775 3.002a6.41 6.41 0 0 1-3.884-1.206l.955-1.481c.844.642 1.875.991 2.936.993 1.022 0 1.81-.402 1.81-1.11 0-.64-.666-.875-1.957-1.079l-.584-.093c-1.626-.255-2.809-.973-2.809-2.64 0-1.921 1.71-2.922 3.673-2.922a6.48 6.48 0 0 1 3.52.982l-.866 1.499zm9.549 6.89h-6.885v-9.216h6.829v1.685h-4.997v2.041h4.775v1.685h-4.766v2.119h5.048zm8.602 0h-6.703v-9.216h1.834v7.497h4.87zm8.152 0h-6.885v-9.216h6.831v1.685h-4.997v2.041h4.766v1.685h-4.766v2.119h5.048z"/><use xlink:href="#g" y="-38.504"/><use xlink:href="#h" y="-38.505"/><path d="M633.073 243.842a4.95 4.95 0 0 0-2.614-.784c-1.035 0-1.766.409-1.766 1.11s.797.888 1.903 1.066l.52.087c1.646.271 2.936.975 2.936 2.58 0 2.034-1.79 3-3.775 3a6.4 6.4 0 0 1-3.884-1.206l.955-1.481c.844.642 1.875.991 2.936.993 1.022 0 1.81-.4 1.81-1.11 0-.64-.666-.877-1.957-1.079l-.584-.093c-1.626-.255-2.809-.973-2.809-2.638 0-1.923 1.71-2.922 3.673-2.922a6.48 6.48 0 0 1 3.52.982l-.864 1.497zm8.371.151a2.22 2.22 0 0 1-1.375 2.092c.929.288 1.566 1.142 1.579 2.114 0 1.817-1.652 2.691-3.396 2.691a4.07 4.07 0 0 1-3.22-1.332l1.062-1.164a2.91 2.91 0 0 0 2.092.888c.888 0 1.612-.389 1.612-1.197s-.811-1.204-1.803-1.204h-1.073V245.3h1.079c.888 0 1.612-.395 1.612-1.173s-.666-1.15-1.526-1.15a2.32 2.32 0 0 0-1.863.933l-1.11-1.124a3.65 3.65 0 0 1 3.074-1.43c1.943 0 3.265 1.053 3.265 2.647"/></g><path d="M4.562 115.846h26.437v7.528H4.562z" class="B J"/><g class="I B"><path d="M32.222 143.505H3.511v-28.716h28.536v28.709l.175.007zm-26.428-2.099h24.327v-24.334H5.788l.007 24.334z"/><path d="M4.562 123.199h26.437v2.101H4.562zm3.326 5.953h3.851v2.452H7.888zm17.508 214.442l-1.575-1.577 5.077-5.076-5.077-5.076 1.575-1.75 6.827 6.826z"/><path d="M13.141 335.718h17.507v2.276H13.141z"/></g><g class="J B"><path d="M6.663 348.68L0 341.853l6.663-6.662 1.75 1.577-5.252 5.076 5.252 5.252z"/><path d="M1.586 340.794h17.507v2.276H1.586zm17.507-125.515a15.06 15.06 0 0 1-2.801-.175l.351-2.274a16.92 16.92 0 0 0 4.202.175l.351 2.274h-2.103zm4.553-.7l-.7-2.101a11.92 11.92 0 0 0 3.676-1.75l1.401 1.925a13.93 13.93 0 0 1-4.377 1.925m-9.805-.175a20.8 20.8 0 0 1-4.377-2.276l1.401-1.75c1.064.911 2.321 1.57 3.676 1.925l-.7 2.101zm15.932-3.502l-1.575-1.574a10.89 10.89 0 0 0 2.443-3.331l2.101 1.05a12.66 12.66 0 0 1-2.976 3.851m-22.06-.524a20.77 20.77 0 0 1-2.801-4.026l2.101-.875c.592 1.268 1.358 2.446 2.276 3.502l-1.577 1.399zm26.093-5.598l-2.101-.7a17.56 17.56 0 0 0 .7-4.202v-.875l2.276-.175v1.05c-.106 1.661-.399 3.306-.875 4.901m-29.588-.7c-.346-1.374-.522-2.785-.524-4.202v-.7l2.276.175v.524a11.27 11.27 0 0 0 .524 3.502l-2.276.7zm1.925-6.826l-2.276-.526a14.44 14.44 0 0 1 1.75-4.552l1.925 1.226a19.67 19.67 0 0 0-1.401 3.851m25.735-.351a14.86 14.86 0 0 0-1.575-3.851l1.925-1.226a20.86 20.86 0 0 1 1.925 4.552l-2.276.524zm-22.935-5.252l-1.75-1.401c1.052-1.288 2.291-2.41 3.676-3.331l1.226 1.925a9.59 9.59 0 0 0-3.151 2.8m20.134-.351c-.884-1.057-1.952-1.946-3.151-2.625l1.226-1.925a15.92 15.92 0 0 1 3.676 3.151l-1.75 1.399zm-15.231-3.502l-.875-2.101a15.72 15.72 0 0 1 4.726-1.226l.175 2.276a15.14 15.14 0 0 0-4.026 1.05m10.154-.175a10.38 10.38 0 0 0-4.026-.875l.175-2.276c1.611.164 3.197.516 4.726 1.05l-.875 2.101z"/></g><path d="M19.093 194.622c2.901 0 5.252 2.351 5.252 5.252s-2.352 5.252-5.252 5.252-5.252-2.351-5.252-5.252a5.25 5.25 0 0 1 1.538-3.714c.985-.985 2.321-1.538 3.714-1.538" class="B I"/><path d="M248.96 188.496h114.321" class="D"/><use xlink:href="#i" class="B E"/><g class="D"><path d="M284.636 165.585h41.099v41.096h-41.099v-41.096z" class="G"/><path d="M249.458 237.868h114.321"/></g><use xlink:href="#i" y="53.545" class="B E"/><path d="M284.636 219.13h41.099v41.096h-41.099V219.13z" class="D G"/><g class="B"><path d="M313.396 184.041c.544.035.977.467 1.013 1.01v9.513c-.036.543-.469.976-1.013 1.01h-16.394c-.543-.036-.975-.468-1.01-1.01v-17.406c.036-.543.468-.975 1.01-1.01h2.023c.543.036.975.468 1.01 1.01v6.071a.87.87 0 0 0 .811.811h1.417a.87.87 0 0 0 .811-.811v-6.071c.036-.543.468-.975 1.01-1.01h2.023c.543.036.975.468 1.01 1.01v5.869c.08.453.385.834.811 1.01l5.468.002zm-2.632 6.475v-1.821c-.036-.543-.469-.976-1.013-1.01h-2.023c-.544.035-.977.467-1.013 1.01v1.821c.036.543.469.976 1.013 1.01h2.023c.273.017.54-.084.734-.277s.295-.46.279-.733" fill="#f60"/><path d="M311.262 233.409h0c-.152-.367-.481-.63-.873-.697a1.53 1.53 0 0 0-1.219.173c-.415.185-.686.592-.697 1.046a1.53 1.53 0 0 0 .175 1.221c.152.365.481.628.871.695.413.116.856.053 1.221-.173.415-.185.686-.592.697-1.046a1.53 1.53 0 0 0-.173-1.221m-8.883 1.221a4.65 4.65 0 0 1 2.443 1.219l.349.351 1.568-.873c-.176-.627-.176-1.29 0-1.916a3.11 3.11 0 0 1 1.568-2.092c.788-.466 1.731-.592 2.614-.349.863.254 1.606.811 2.092 1.568.455.793.58 1.732.349 2.616a3.11 3.11 0 0 1-1.568 2.092l-.173.173a3.39 3.39 0 0 1-2.267.175c-.637-.135-1.199-.509-1.568-1.046l-1.568.871c.464.995.464 2.145 0 3.14l1.568.871c.435-.465.972-.823 1.568-1.046.883-.231 1.822-.105 2.614.349a3.75 3.75 0 0 1 1.57 2.092c.231.883.106 1.822-.349 2.614-.487.757-1.229 1.314-2.092 1.57a3.49 3.49 0 0 1-2.616-.349 3.11 3.11 0 0 1-1.568-2.092c-.175-.628-.175-1.291 0-1.919l-1.568-.871-.349.349a4.09 4.09 0 0 1-2.443 1.219v1.919a5.43 5.43 0 0 1 1.743.873 3.37 3.37 0 0 1 0 4.885 3.17 3.17 0 0 1-2.443 1.046 3.45 3.45 0 0 1-2.443-5.927 2.42 2.42 0 0 1 1.743-.873v-1.919c-.918-.152-1.769-.577-2.443-1.219a4.2 4.2 0 0 1-1.221-3.138c.033-1.155.465-2.264 1.221-3.138a4.09 4.09 0 0 1 2.443-1.219v-1.919a5.44 5.44 0 0 1-1.743-.873c-1.01-.992-1.32-2.497-.784-3.807s1.811-2.167 3.227-2.167 2.691.856 3.227 2.167.226 2.815-.784 3.807c-.433.522-1.066.839-1.743.873v1.919l-.173-.007zm1.046 2.787a2.6 2.6 0 0 0-1.568-.695c-.61-.069-1.209.197-1.568.695a2.6 2.6 0 0 0-.697 1.57 1.7 1.7 0 0 0 .697 1.57 2.6 2.6 0 0 0 1.568.697 2.22 2.22 0 0 0 1.568-.697c.374-.448.616-.992.697-1.57a6.17 6.17 0 0 0-.697-1.57m6.973 8.021a1.74 1.74 0 0 0 .873-.697c.155-.387.215-.806.173-1.221a3.61 3.61 0 0 0-.697-1.044 2.58 2.58 0 0 0-1.221-.175c-.359.13-.665.375-.871.697-.227.364-.291.806-.175 1.219.17.386.406.74.697 1.046a1.43 1.43 0 0 0 1.219.175m-8.717 4.885c.423.053.835-.154 1.046-.524a1.51 1.51 0 0 0 .522-1.046 1.58 1.58 0 0 0-.522-1.219 1.51 1.51 0 0 0-1.046-.522c-.414-.011-.806.185-1.046.522a1.58 1.58 0 0 0-.522 1.219c-.053.422.153.834.522 1.046.264.309.641.498 1.046.524m1.219-21.965c-.264-.308-.641-.496-1.046-.522a1.24 1.24 0 0 0-1.046.522c-.345.31-.536.756-.522 1.219a1.88 1.88 0 0 0 .522 1.221 1.5 1.5 0 0 0 1.046.522 1.05 1.05 0 0 0 1.046-.522 1.58 1.58 0 0 0 .522-1.221c-.107-.432-.283-.844-.522-1.219" class="F"/></g><g stroke="#e8c4c5" class="G"><path d="M248.96 129.674h114.321m-114.321 9.631h114.321"/></g><path d="M248.96 134.144h114.321" class="D"/><use xlink:href="#i" y="-53.547" class="B E"/><path d="M284.636 112.038h41.099v41.096h-41.099v-41.096z" class="D G"/></g></g><g transform="translate(326 147)"><mask id="p" class="C"><use xlink:href="#B"/></mask><g mask="url(#p)" fill="url(#C)" class="B"><path d="M-.461-.003h25.676v20.03H-.461z"/></g><mask id="q" class="C"><use xlink:href="#D"/></mask><g mask="url(#q)" fill="url(#E)" class="B"><path d="M-.43.013H13V11.15H-.43z"/></g></g><g transform="translate(326 159)"><mask id="r" class="C"><use xlink:href="#F"/></mask><g mask="url(#r)" fill="url(#G)" class="B"><path d="M.009.002h14.997v9.006H.009z"/></g></g><g transform="translate(337 156)"><mask id="s" class="C"><use xlink:href="#H"/></mask><g mask="url(#s)" fill="url(#I)" class="B"><path d="M0-.004h3v2H0z"/></g></g><g transform="translate(334 151)"><mask id="t" class="C"><use xlink:href="#J"/></mask><g mask="url(#t)" fill="url(#K)" class="B"><path d="M0 .002h10V5H0z"/></g></g><g transform="translate(341 156)"><mask id="u" class="C"><use xlink:href="#L"/></mask><g mask="url(#u)" fill="url(#M)" class="B"><path d="M0 0h7.018v8H0z"/></g></g><g transform="translate(341 152)"><mask id="v" class="C"><use xlink:href="#N"/></mask><g mask="url(#v)" fill="url(#O)" class="B"><path d="M0-.018h10.202v6.016H0z"/></g></g><g transform="translate(326 155)"><mask id="w" class="C"><use xlink:href="#P"/></mask><g mask="url(#w)" fill="url(#Q)" class="B"><path d="M.005 0H12v12.111H.005z"/></g></g><mask id="x" class="C"><use xlink:href="#W" href="#A"/></mask><g mask="url(#x)" class="B C"><path d="M347.117 153.402c.313 0 .566.254.566.566s-.254.566-.566.566-.566-.254-.566-.566c-.001-.15.059-.295.165-.401s.251-.166.401-.165"/></g></g></svg>